<?xml version="1.0" encoding="UTF-8"?>
<svg id="Layer_2" data-name="Layer 2" xmlns="http://www.w3.org/2000/svg" viewBox="0 0 265.48 179.51">
  <defs>
    <style>
      .cls-1 {
        fill: #fff;
        stroke-width: 0px;
      }
    </style>
  </defs>
  <g id="Capa_1" data-name="Capa 1">
    <g>
      <polygon class="cls-1" points="76.72 87.06 0 159.76 0 15.26 76.72 87.06"/>
      <polygon class="cls-1" points="265.48 15.26 190.63 87.51 265.48 159.76 265.48 15.26"/>
      <path class="cls-1" d="m257.47,5.39c-54.42,59.64-97.38,100.8-110.1,106.31-7.78,3.37-15,3-15,3-9.04-.47-15.59-5.02-18.3-6.91C102.16,99.49,60.7,60.48,6.59,5.39c2.04-1.8,4.08-3.59,6.11-5.39h240.52l4.24,5.39Z"/>
      <path class="cls-1" d="m83.2,93.36c-26.56,26.92-53.12,53.85-79.67,80.77l7.06,5.39h242.88l8.47-5.39c-26.03-26.59-52.05-53.18-78.08-79.77-4.36,5.01-11.37,12.26-21.33,19.33-11.92,8.46-19.47,13.83-29.67,13.67-10.05-.16-17.32-5.59-29-14.33-9.5-7.11-16.27-14.36-20.67-19.67Z"/>
    </g>
  </g>
</svg>