<?xml version="1.0" encoding="utf-8"?>
<!-- Generator: Adobe Illustrator 27.8.1, SVG Export Plug-In . SVG Version: 6.00 Build 0)  -->
<svg version="1.1"
	 id="svg2" xmlns:rdf="http://www.w3.org/1999/02/22-rdf-syntax-ns#" xmlns:cc="http://creativecommons.org/ns#" xmlns:dc="http://purl.org/dc/elements/1.1/" xmlns:svg="http://www.w3.org/2000/svg" xmlns:inkscape="http://www.inkscape.org/namespaces/inkscape" xmlns:sodipodi="http://sodipodi.sourceforge.net/DTD/sodipodi-0.dtd" inkscape:version="0.91 r13725" sodipodi:docname="Git-Logo-White.svg"
	 xmlns="http://www.w3.org/2000/svg" xmlns:xlink="http://www.w3.org/1999/xlink" x="0px" y="0px" viewBox="0 0 137 110.5"
	 style="enable-background:new 0 0 137 110.5;" xml:space="preserve">
<style type="text/css">
	.st0{fill:#FFFFFF;}
</style>
<sodipodi:namedview  bordercolor="#666666" borderopacity="1" gridtolerance="10" guidetolerance="10" id="namedview4" inkscape:current-layer="g10" inkscape:cx="136.48125" inkscape:cy="57.006248" inkscape:pageopacity="0" inkscape:pageshadow="2" inkscape:window-height="480" inkscape:window-maximized="0" inkscape:window-width="702" inkscape:window-x="0" inkscape:window-y="25" inkscape:zoom="1.2309383" objecttolerance="10" pagecolor="#ffffff" showgrid="false">
	</sodipodi:namedview>
<g id="g10" transform="matrix(1.25,0,0,-1.25,0,114.0125)" inkscape:groupmode="layer" inkscape:label="ink_ext_XXXXXX">
	<g id="g12" transform="scale(0.1,0.1)">
		<path id="path14" inkscape:connector-curvature="0" class="st0" d="M326.2,559.3c-32.5,0-56.7-15.9-56.7-54.3
			c0-28.9,15.9-49,54.9-49c33,0,55.5,19.5,55.5,50.2C379.9,541,359.9,559.3,326.2,559.3z M261.3,288.3c-7.7-9.4-15.3-19.5-15.3-31.3
			c0-23.6,30.1-30.7,71.4-30.7c34.2,0,80.9,2.4,80.9,34.2c0,18.9-22.4,20.1-50.8,21.9L261.3,288.3z M436,557.6
			c10.6-13.6,21.8-32.5,21.8-59.6c0-65.5-51.4-103.9-125.7-103.9c-18.9,0-36,2.4-46.7,5.3L266,368l57.9-3.5
			c102.2-6.5,162.4-9.5,162.4-88c0-67.9-59.6-106.3-162.4-106.3c-106.9,0-147.6,27.2-147.6,73.8c0,26.6,11.8,40.7,32.5,60.2
			c-19.5,8.2-26,23-26,38.9c0,13,6.5,24.8,17.1,36c10.6,11.2,22.4,22.4,36.6,35.4c-28.9,14.2-50.8,44.9-50.8,88.6
			c0,67.9,44.9,114.5,135.2,114.5c25.4,0,40.8-2.3,54.3-5.9h115.1v-50.2L436,557.6"/>
		<path id="path16" inkscape:connector-curvature="0" class="st0" d="M594.2,664.8c-33.7,0-53.1,19.5-53.1,53.2
			c0,33.6,19.5,51.9,53.1,51.9c34.2,0,53.7-18.3,53.7-51.9C648,684.3,628.5,664.8,594.2,664.8z M518.1,310v46.6l30.1,4.1
			c8.3,1.2,9.4,3,9.4,11.8v173.6c0,6.5-1.8,10.6-7.7,12.4l-31.9,11.2l6.5,47.8h122.2v-245c0-9.5,0.6-10.6,9.5-11.8l30.1-4.1V310
			H518.1"/>
		<path id="path18" inkscape:connector-curvature="0" class="st0" d="M919.8,332.9c-25.4-12.4-62.6-23.6-96.3-23.6
			c-70.3,0-96.8,28.3-96.8,95.1v154.7c0,3.5,0,5.9-4.7,5.9h-41.3v52.5c52,5.9,72.6,31.9,79.1,96.3h56.1v-83.9c0-4.1,0-5.9,4.7-5.9
			h83.2v-59h-88V423.9c0-34.8,8.3-48.4,40.1-48.4c16.6,0,33.7,4.1,47.8,9.4L919.8,332.9"/>
	</g>
</g>
</svg>
