<?xml version="1.0" encoding="utf-8"?>
<!-- Generator: Adobe Illustrator 27.8.1, SVG Export Plug-In . SVG Version: 6.00 Build 0)  -->
<svg version="1.1" id="Layer_1" xmlns="http://www.w3.org/2000/svg" xmlns:xlink="http://www.w3.org/1999/xlink" x="0px" y="0px"
	 viewBox="0 0 512 512" style="enable-background:new 0 0 512 512;" xml:space="preserve">
<style type="text/css">
	.st0{fill:#FFFFFF;}
</style>
<path class="st0" d="M74.6,74.6l33,370.4l148.1,41l148.7-41.2l33-370.2H74.6z M162.8,381.6l-6.4-71.3H202l3.2,36.3l50.7,13.6l0.1,0
	v0l50.5-13.6l5.3-59H256v-0.1H154.4L142,150.3h227.6l-4.2,45.4H191.8l4.2,46.5h165.3l-12.5,139.4L256,407.3v0.3L162.8,381.6z"/>
<path class="st0" d="M255.8,287.5L255.8,287.5l0.2,0.1v-0.1H255.8z M255.9,360.2L255.9,360.2L255.9,360.2L255.9,360.2z"/>
</svg>
