<?xml version="1.0" encoding="UTF-8"?>
<svg id="Layer_2" data-name="Layer 2" xmlns="http://www.w3.org/2000/svg" viewBox="0 0 350.16 526.36">
  <defs>
    <style>
      .cls-1 {
        fill: none;
        stroke: #fff;
        stroke-linecap: round;
        stroke-linejoin: round;
        stroke-width: 30px;
      }

      .cls-2 {
        fill: #fff;
        stroke-width: 0px;
      }
    </style>
  </defs>
  <g id="svg5">
    <g id="g3551">
      <g id="g931">
        <g id="g1952">
          <path id="path923" class="cls-2" d="m160.66,280.46v-37.3c0-18.07,13.94-32.61,31.25-32.61h0c17.31,0,31.25,14.54,31.25,32.61v46.09"/>
          <path id="path925" class="cls-2" d="m223.17,289.26v-37.15c0-18.07,13.94-32.61,31.25-32.61h0c17.31,0,31.25,14.54,31.25,32.61v45.95"/>
          <path id="path927" class="cls-2" d="m285.68,298.06v-37.01c0-18.07,13.94-32.61,31.25-32.61h0c17.31,0,31.25,14.54,31.25,32.61v45.8"/>
          <path id="path929" class="cls-2" d="m348.18,306.85l1.95,95.17c2.6,127.1-162.92,163.45-246.64,77.78-19.12-19.57-28.12-38.04-39.98-61.01-19.65-38.07-58.96-114.21-58.96-114.21-9.02-15.65-4.21-35.22,10.78-43.89h0c14.99-8.67,34.33-3.05,43.35,12.59,0,0,39.48,70.3,39.48,67.61v-79.06s0-161.74,0-161.74c0-18.07,13.94-32.61,31.25-32.61h0c17.31,0,31.25,14.54,31.25,32.61v180.37"/>
        </g>
      </g>
      <path id="path2870" class="cls-1" d="m47.94,107.46c-.45-3.48-.68-6.99-.68-10.5,0-45.26,36.78-81.96,82.15-81.96h0c45.37,0,82.15,36.69,82.15,81.96h0c0,3.51-.23,7.02-.68,10.5"/>
    </g>
  </g>
</svg>