<?xml version="1.0" encoding="utf-8"?>
<!-- Generator: Adobe Illustrator 27.8.1, SVG Export Plug-In . SVG Version: 6.00 Build 0)  -->
<svg version="1.1"
	 id="svg1968" xmlns:rdf="http://www.w3.org/1999/02/22-rdf-syntax-ns#" xmlns:cc="http://web.resource.org/cc/" xmlns:dc="http://purl.org/dc/elements/1.1/" xmlns:svg="http://www.w3.org/2000/svg" xmlns:inkscape="http://www.inkscape.org/namespaces/inkscape" xmlns:sodipodi="http://sodipodi.sourceforge.net/DTD/sodipodi-0.dtd" inkscape:version="0.44" sodipodi:docbase="C:\Dokumente und Einstellungen\Andreas\Eigene Dateien\Eigene Bilder\sonstiges\Logos\Vektor\Computer, Electronics" sodipodi:docname="Java.svg" sodipodi:version="0.32"
	 xmlns="http://www.w3.org/2000/svg" xmlns:xlink="http://www.w3.org/1999/xlink" x="0px" y="0px" viewBox="0 0 229.2 310.9"
	 style="enable-background:new 0 0 229.2 310.9;" xml:space="preserve">
<style type="text/css">
	.st0{fill:#FFFFFF;}
</style>
<sodipodi:namedview  bordercolor="#666666" borderopacity="1.0" height="129.89mm" id="base" inkscape:current-layer="layer1" inkscape:cx="350" inkscape:cy="205.14359" inkscape:document-units="px" inkscape:pageopacity="0.0" inkscape:pageshadow="2" inkscape:window-height="574" inkscape:window-width="904" inkscape:window-x="56" inkscape:window-y="28" inkscape:zoom="0.35" pagecolor="#ffffff" units="mm" width="68.51mm">
	</sodipodi:namedview>
<g id="layer1" transform="translate(3824.556,782.8939)" inkscape:groupmode="layer" inkscape:label="Ebene 1">
	<g id="Ebene_x0020_1" transform="translate(-3826.724,-785.8793)">
		<g id="_198302696">
			<path id="_227268128" class="st0" d="M76.2,243.3c0,0-11.9,7.3,8.3,9.3c24.4,3.1,37.4,2.6,64.4-2.6c0,0,7.3,4.7,17.1,8.3
				C105.3,284.3,28.5,256.8,76.2,243.3L76.2,243.3z M68.4,209.6c0,0-13,9.9,7.3,11.9c26.5,2.6,47.2,3.1,83.1-4.2
				c0,0,4.7,5.2,12.5,7.8C98,247,16,227.2,68.4,209.6L68.4,209.6z M211.7,268.8c0,0,8.8,7.3-9.9,13c-34.8,10.4-145.9,13.5-177,0
				c-10.9-4.7,9.9-11.4,16.6-12.5c6.7-1.6,10.4-1.6,10.4-1.6c-11.9-8.3-79.4,17.1-34.3,24.4C141.6,312.4,243.9,283.3,211.7,268.8
				L211.7,268.8z M81.9,174.3c0,0-56.6,13.5-20.2,18.2c15.6,2.1,46.2,1.6,74.7-0.5c23.4-2.1,46.7-6.2,46.7-6.2s-8.3,3.6-14,7.3
				c-57.6,15.1-168.2,8.3-136.5-7.3C59.6,172.7,81.9,174.3,81.9,174.3L81.9,174.3z M183.1,230.9c58.1-30.1,31.1-59.2,12.5-55.5
				c-4.7,1-6.7,2.1-6.7,2.1s1.6-3.1,5.2-4.2c36.9-13,65.9,38.9-11.9,59.2C182.1,232.4,182.6,231.9,183.1,230.9L183.1,230.9z
				 M87.6,312.9c56.1,3.6,141.7-2.1,143.8-28.5c0,0-4.2,10.4-46.2,18.2c-47.8,8.8-106.9,7.8-141.7,2.1
				C43.5,304.6,50.8,310.8,87.6,312.9L87.6,312.9z"/>
			<path id="_230367536" class="st0" d="M186.8,66.8c0,0-106.4,26.5-55.5,85.1c14.7,16.8-3.3,32-4.1,32.7
				c1.1-0.6,38.1-20.1,20.7-44.1C131.7,117.2,119.3,105.8,186.8,66.8z M147.8,3c13,51.4-45.7,67-67,99.1
				c-14.5,21.8,6.8,45.2,36.3,71.6c-11.4-26-50.4-48.8,0-88.8C180,35.7,147.8,3,147.8,3z"/>
		</g>
	</g>
</g>
</svg>
