<?xml version="1.0" encoding="UTF-8"?>
<svg id="Layer_2" data-name="Layer 2" xmlns="http://www.w3.org/2000/svg" xmlns:xlink="http://www.w3.org/1999/xlink" viewBox="0 0 217 375.75">
  <defs>
    <style>
      .cls-1 {
        fill: url(#linear-gradient);
      }

      .cls-1, .cls-2, .cls-3, .cls-4, .cls-5, .cls-6, .cls-7, .cls-8, .cls-9, .cls-10, .cls-11, .cls-12, .cls-13, .cls-14, .cls-15, .cls-16, .cls-17, .cls-18, .cls-19, .cls-20, .cls-21, .cls-22, .cls-23, .cls-24, .cls-25, .cls-26, .cls-27 {
        stroke-width: 0px;
      }

      .cls-2 {
        fill: url(#radial-gradient);
      }

      .cls-3 {
        fill: url(#radial-gradient-11);
      }

      .cls-4 {
        fill: url(#radial-gradient-10);
      }

      .cls-5 {
        fill: url(#linear-gradient-10);
      }

      .cls-6 {
        fill: url(#radial-gradient-2);
      }

      .cls-7 {
        fill: url(#radial-gradient-3);
      }

      .cls-8 {
        fill: url(#radial-gradient-4);
      }

      .cls-9 {
        fill: url(#radial-gradient-6);
      }

      .cls-10 {
        fill: url(#radial-gradient-9);
      }

      .cls-11 {
        fill: url(#radial-gradient-8);
      }

      .cls-12 {
        fill: url(#radial-gradient-5);
      }

      .cls-13 {
        fill: url(#radial-gradient-7);
      }

      .cls-14 {
        fill: url(#linear-gradient-4);
      }

      .cls-15 {
        fill: url(#linear-gradient-2);
      }

      .cls-16 {
        fill: url(#linear-gradient-3);
      }

      .cls-17 {
        fill: url(#linear-gradient-8);
      }

      .cls-18 {
        fill: url(#linear-gradient-9);
      }

      .cls-19 {
        fill: url(#linear-gradient-7);
      }

      .cls-20 {
        fill: url(#linear-gradient-5);
      }

      .cls-21 {
        fill: url(#linear-gradient-6);
      }

      .cls-23 {
        fill: #4f5560;
      }

      .cls-24 {
        fill: #292b2d;
      }

      .cls-25 {
        fill: #0f0f10;
      }

      .cls-26 {
        fill: #0b0b0c;
      }

      .cls-27 {
        fill: #fff;
      }
    </style>
    <linearGradient id="linear-gradient" x1="137.27" y1="356.68" x2="162.58" y2="356.68" gradientTransform="translate(0 382.42) scale(1 -1)" gradientUnits="userSpaceOnUse">
      <stop offset="0" stop-color="#1e1e1f"/>
      <stop offset=".01" stop-color="#3d3c3e"/>
      <stop offset=".04" stop-color="#606163"/>
      <stop offset=".05" stop-color="#717375"/>
      <stop offset=".08" stop-color="#4e4e50"/>
      <stop offset=".09" stop-color="#434344"/>
      <stop offset=".94" stop-color="#4f4f51"/>
      <stop offset=".94" stop-color="#555557"/>
      <stop offset=".95" stop-color="#737578"/>
      <stop offset=".95" stop-color="#8a8c8e"/>
      <stop offset=".96" stop-color="#9a9c9e"/>
      <stop offset=".96" stop-color="#a4a6a8"/>
      <stop offset=".97" stop-color="#a7a9ac"/>
      <stop offset=".98" stop-color="#7c7e80"/>
      <stop offset=".99" stop-color="#57585a"/>
      <stop offset="1" stop-color="#39393a"/>
      <stop offset="1" stop-color="#222223"/>
    </linearGradient>
    <radialGradient id="radial-gradient" cx="149.12" cy="358.78" fx="149.12" fy="358.78" r="13.41" gradientTransform="translate(0 382.42) scale(1 -1)" gradientUnits="userSpaceOnUse">
      <stop offset="0" stop-color="#a7a9ac"/>
      <stop offset=".12" stop-color="#a4a6a8"/>
      <stop offset=".24" stop-color="#9a9c9e"/>
      <stop offset=".37" stop-color="#8a8c8e"/>
      <stop offset=".5" stop-color="#737578"/>
      <stop offset=".63" stop-color="#555557"/>
      <stop offset=".65" stop-color="#4f4f51"/>
      <stop offset=".77" stop-color="#4d4e50"/>
      <stop offset=".82" stop-color="#474749"/>
      <stop offset=".85" stop-color="#383839"/>
      <stop offset=".87" stop-color="#222223"/>
      <stop offset=".93" stop-color="#39393a"/>
      <stop offset=".95" stop-color="#434344"/>
      <stop offset=".96" stop-color="#4e4e50"/>
      <stop offset="1" stop-color="#717375"/>
    </radialGradient>
    <linearGradient id="linear-gradient-2" x1="33.46" y1="311.9" x2="33.46" y2="297.03" gradientTransform="translate(0 382.42) scale(1 -1)" gradientUnits="userSpaceOnUse">
      <stop offset="0" stop-color="#222223"/>
      <stop offset=".01" stop-color="#39393a"/>
      <stop offset=".03" stop-color="#57585a"/>
      <stop offset=".05" stop-color="#7c7e80"/>
      <stop offset=".08" stop-color="#a7a9ac"/>
      <stop offset=".12" stop-color="#a4a6a8"/>
      <stop offset=".16" stop-color="#9a9c9e"/>
      <stop offset=".2" stop-color="#8a8c8e"/>
      <stop offset=".25" stop-color="#737578"/>
      <stop offset=".29" stop-color="#555557"/>
      <stop offset=".3" stop-color="#4f4f51"/>
      <stop offset=".91" stop-color="#434344"/>
      <stop offset=".92" stop-color="#4e4e50"/>
      <stop offset=".95" stop-color="#717375"/>
      <stop offset=".96" stop-color="#606163"/>
      <stop offset=".99" stop-color="#3d3c3e"/>
      <stop offset="1" stop-color="#1e1e1f"/>
    </linearGradient>
    <radialGradient id="radial-gradient-2" cx="30.94" cy="304.34" fx="30.94" fy="304.34" r="7.51" gradientTransform="translate(0 382.42) scale(1 -1)" gradientUnits="userSpaceOnUse">
      <stop offset="0" stop-color="#a7a9ac"/>
      <stop offset=".11" stop-color="#a4a6a8"/>
      <stop offset=".24" stop-color="#9a9c9e"/>
      <stop offset=".36" stop-color="#8a8c8e"/>
      <stop offset=".49" stop-color="#737578"/>
      <stop offset=".62" stop-color="#555557"/>
      <stop offset=".63" stop-color="#4f4f51"/>
      <stop offset=".83" stop-color="#222223"/>
      <stop offset=".88" stop-color="#39393a"/>
      <stop offset=".91" stop-color="#434344"/>
      <stop offset=".93" stop-color="#4e4e50"/>
      <stop offset="1" stop-color="#717375"/>
    </radialGradient>
    <linearGradient id="linear-gradient-3" x1="33.14" y1="280.65" x2="33.14" y2="269.32" gradientTransform="translate(0 382.42) scale(1 -1)" gradientUnits="userSpaceOnUse">
      <stop offset="0" stop-color="#222223"/>
      <stop offset=".07" stop-color="#272728"/>
      <stop offset=".1" stop-color="#353536"/>
      <stop offset=".12" stop-color="#464647"/>
      <stop offset=".14" stop-color="#555658"/>
      <stop offset=".15" stop-color="#68696b"/>
      <stop offset=".16" stop-color="#7c7e81"/>
      <stop offset=".17" stop-color="#949699"/>
      <stop offset=".18" stop-color="#a7a9ac"/>
      <stop offset=".19" stop-color="#a4a6a8"/>
      <stop offset=".2" stop-color="#9a9c9e"/>
      <stop offset=".21" stop-color="#8a8c8e"/>
      <stop offset=".22" stop-color="#737578"/>
      <stop offset=".23" stop-color="#555557"/>
      <stop offset=".24" stop-color="#4f4f51"/>
      <stop offset=".91" stop-color="#434344"/>
      <stop offset=".92" stop-color="#4e4e50"/>
      <stop offset=".95" stop-color="#717375"/>
      <stop offset=".96" stop-color="#606163"/>
      <stop offset=".99" stop-color="#3d3c3e"/>
      <stop offset="1" stop-color="#1e1e1f"/>
    </linearGradient>
    <radialGradient id="radial-gradient-3" cx="31.21" cy="274.86" fx="31.21" fy="274.86" r="5.67" gradientTransform="translate(0 382.42) scale(1 -1)" gradientUnits="userSpaceOnUse">
      <stop offset="0" stop-color="#a7a9ac"/>
      <stop offset=".12" stop-color="#a4a6a8"/>
      <stop offset=".24" stop-color="#9a9c9e"/>
      <stop offset=".37" stop-color="#8a8c8e"/>
      <stop offset=".5" stop-color="#737578"/>
      <stop offset=".63" stop-color="#555557"/>
      <stop offset=".65" stop-color="#4f4f51"/>
      <stop offset=".81" stop-color="#4d4e50"/>
      <stop offset=".87" stop-color="#474749"/>
      <stop offset=".92" stop-color="#383839"/>
      <stop offset=".94" stop-color="#222223"/>
      <stop offset=".98" stop-color="#39393a"/>
      <stop offset="1" stop-color="#434344"/>
    </radialGradient>
    <linearGradient id="linear-gradient-4" y1="253.19" y2="241.86" xlink:href="#linear-gradient-3"/>
    <radialGradient id="radial-gradient-4" cy="247.4" fy="247.4" xlink:href="#radial-gradient-3"/>
    <linearGradient id="linear-gradient-5" x1="110.62" y1="357.65" x2="110.62" y2="26.82" gradientTransform="translate(0 382.42) scale(1 -1)" gradientUnits="userSpaceOnUse">
      <stop offset="0" stop-color="#000"/>
      <stop offset=".02" stop-color="#414042"/>
      <stop offset=".05" stop-color="#bdbfc1"/>
      <stop offset=".07" stop-color="#2e2d2f"/>
      <stop offset=".89" stop-color="#1e1e1f"/>
      <stop offset=".9" stop-color="#2b2b2c"/>
      <stop offset=".91" stop-color="#454446"/>
      <stop offset=".93" stop-color="#5c5c5f"/>
      <stop offset=".94" stop-color="#787a7c"/>
      <stop offset=".95" stop-color="#9a9c9e"/>
      <stop offset=".96" stop-color="#a7a9ac"/>
      <stop offset=".96" stop-color="#939698"/>
      <stop offset=".96" stop-color="#7c7e80"/>
      <stop offset=".97" stop-color="#67686b"/>
      <stop offset=".97" stop-color="#555557"/>
      <stop offset=".97" stop-color="#454547"/>
      <stop offset=".98" stop-color="#343435"/>
      <stop offset=".98" stop-color="#262526"/>
      <stop offset="1" stop-color="#212122"/>
    </linearGradient>
    <radialGradient id="radial-gradient-5" cx="110.58" cy="320.65" fx="110.58" fy="320.65" r="14.05" gradientTransform="translate(0 382.42) scale(1 -1)" gradientUnits="userSpaceOnUse">
      <stop offset="0" stop-color="#4f4f51"/>
      <stop offset=".27" stop-color="#515153"/>
      <stop offset=".37" stop-color="#57575a"/>
      <stop offset=".44" stop-color="#616264"/>
      <stop offset=".49" stop-color="#6e7072"/>
      <stop offset=".54" stop-color="#7f8183"/>
      <stop offset=".58" stop-color="#939597"/>
      <stop offset=".61" stop-color="#a7a9ac"/>
      <stop offset=".69" stop-color="#8e9092"/>
      <stop offset=".83" stop-color="#606163"/>
      <stop offset=".94" stop-color="#3d3c3e"/>
      <stop offset="1" stop-color="#1e1e1f"/>
    </radialGradient>
    <linearGradient id="linear-gradient-6" x1="97.61" y1="328.94" x2="123.44" y2="328.94" gradientTransform="translate(0 382.42) scale(1 -1)" gradientUnits="userSpaceOnUse">
      <stop offset="0" stop-color="#4f4f51"/>
      <stop offset=".27" stop-color="#515153"/>
      <stop offset=".37" stop-color="#57575a"/>
      <stop offset=".44" stop-color="#616264"/>
      <stop offset=".49" stop-color="#6e7072"/>
      <stop offset=".54" stop-color="#7f8183"/>
      <stop offset=".58" stop-color="#939597"/>
      <stop offset=".61" stop-color="#a7a9ac"/>
      <stop offset=".69" stop-color="#8e9092"/>
      <stop offset=".83" stop-color="#606163"/>
      <stop offset=".94" stop-color="#3d3c3e"/>
      <stop offset="1" stop-color="#1e1e1f"/>
    </linearGradient>
    <linearGradient id="linear-gradient-7" x1="122.95" y1="330.09" x2="123.01" y2="330.09" xlink:href="#linear-gradient-6"/>
    <linearGradient id="linear-gradient-8" x1="107.39" y1="344.08" x2="114.08" y2="338.21" gradientTransform="translate(0 382.42) scale(1 -1)" gradientUnits="userSpaceOnUse">
      <stop offset="0" stop-color="#222223"/>
      <stop offset=".48" stop-color="#272728"/>
      <stop offset=".65" stop-color="#353536"/>
      <stop offset=".78" stop-color="#464647"/>
      <stop offset=".88" stop-color="#555658"/>
      <stop offset=".96" stop-color="#67696b"/>
      <stop offset="1" stop-color="#717375"/>
    </linearGradient>
    <radialGradient id="radial-gradient-6" cx="111.15" cy="341.17" fx="111.15" fy="341.17" r="2.08" gradientTransform="translate(0 382.42) scale(1 -1)" gradientUnits="userSpaceOnUse">
      <stop offset="0" stop-color="#00062f"/>
      <stop offset=".22" stop-color="#000830"/>
      <stop offset=".43" stop-color="#000f34"/>
      <stop offset=".62" stop-color="#00173b"/>
      <stop offset=".82" stop-color="#012143"/>
      <stop offset="1" stop-color="#212d4e"/>
    </radialGradient>
    <radialGradient id="radial-gradient-7" cx="110.08" cy="340.78" fx="110.08" fy="340.78" r=".5" gradientTransform="translate(0 382.42) scale(1 -1)" gradientUnits="userSpaceOnUse">
      <stop offset="0" stop-color="#39bced"/>
      <stop offset=".36" stop-color="#0076a4"/>
      <stop offset="1" stop-color="#00062f"/>
    </radialGradient>
    <radialGradient id="radial-gradient-8" cx="111.69" cy="341.84" fx="111.69" fy="341.84" r=".87" xlink:href="#radial-gradient-7"/>
    <radialGradient id="radial-gradient-9" cx="110.36" cy="341.8" fx="110.36" fy="341.8" r=".73" gradientTransform="translate(0 382.42) scale(1 -1)" gradientUnits="userSpaceOnUse">
      <stop offset="0" stop-color="#24132e"/>
      <stop offset=".35" stop-color="#261732"/>
      <stop offset=".66" stop-color="#2e213b"/>
      <stop offset=".97" stop-color="#3a2f4a"/>
      <stop offset="1" stop-color="#3b304c"/>
    </radialGradient>
    <linearGradient id="linear-gradient-9" x1="141.86" y1="353.65" x2="141.86" y2="105.32" gradientTransform="translate(0 382.42) scale(1 -1)" gradientUnits="userSpaceOnUse">
      <stop offset="0" stop-color="#fff" stop-opacity=".5"/>
      <stop offset=".12" stop-color="#fff" stop-opacity=".44"/>
      <stop offset="1" stop-color="#fff" stop-opacity="0"/>
    </linearGradient>
    <radialGradient id="radial-gradient-10" cx="109.63" cy="65.71" fx="109.63" fy="65.71" r="18.88" gradientTransform="translate(0 382.42) scale(1 -1)" gradientUnits="userSpaceOnUse">
      <stop offset="0" stop-color="#fff" stop-opacity=".5"/>
      <stop offset=".12" stop-color="#fff" stop-opacity=".44"/>
      <stop offset="1" stop-color="#fff" stop-opacity="0"/>
    </radialGradient>
    <radialGradient id="radial-gradient-11" cx="105.79" cy="56.32" fx="105.79" fy="56.32" r="13.32" gradientTransform="translate(0 382.42) scale(1 -1)" gradientUnits="userSpaceOnUse">
      <stop offset="0" stop-color="#abadb0"/>
      <stop offset=".1" stop-color="#9fa1a3"/>
      <stop offset=".29" stop-color="#8d8f91"/>
      <stop offset=".49" stop-color="#808285"/>
      <stop offset=".72" stop-color="#797b7d"/>
      <stop offset="1" stop-color="#77787b"/>
    </radialGradient>
    <linearGradient id="linear-gradient-10" x1="109.71" y1="32.48" x2="109.71" y2="67.83" xlink:href="#linear-gradient-9"/>
  </defs>
  <g id="Layer_1-2" data-name="Layer 1">
    <g>
      <g>
        <path class="cls-27" d="m180.96,4.59c0,.62-.62,1.13-1.37,1.13h-31.96c-.75,0-1.37-.51-1.37-1.13V1.13c0-.62.62-1.13,1.37-1.13h31.96c.75,0,1.37.51,1.37,1.13v3.46Z"/>
        <path class="cls-27" d="m146.42.64h34.39c-.22-.37-.68-.64-1.22-.64h-31.96c-.54,0-.99.26-1.22.64Z"/>
        <path class="cls-27" d="m7.88,68.98c0,.62-.62,1.13-1.37,1.13H1.37c-.75,0-1.37-.51-1.37-1.13v-14.37c0-.62.62-1.13,1.37-1.13h5.14c.75,0,1.37.51,1.37,1.13v14.37Z"/>
        <path class="cls-27" d="m.91,53.56c-.53.16-.91.57-.91,1.05v14.37c0,.49.39.9.91,1.05v-16.47Z"/>
        <path class="cls-27" d="m6.78,100.5c0,.62-.62,1.13-1.37,1.13H1.6c-.75,0-1.37-.51-1.37-1.13v-10.63c0-.62.62-1.13,1.37-1.13h3.81c.75,0,1.37.51,1.37,1.13v10.63Z"/>
        <path class="cls-27" d="m.91,88.92c-.4.2-.69.54-.69.96v10.63c0,.41.28.76.69.96v-12.55Z"/>
        <path class="cls-27" d="m6.78,131.54c0,.62-.62,1.13-1.37,1.13H1.6c-.75,0-1.37-.51-1.37-1.13v-10.63c0-.62.62-1.13,1.37-1.13h3.81c.75,0,1.37.51,1.37,1.13v10.63Z"/>
        <path class="cls-27" d="m.91,119.96c-.4.2-.69.54-.69.96v10.63c0,.41.28.76.69.96v-12.55Z"/>
        <path class="cls-27" d="m217,348.62c0,14.92-14.81,27.13-32.9,27.13H35.37c-18.1,0-32.9-12.21-32.9-27.13V28.9C2.46,13.98,17.27,1.77,35.37,1.77h148.73c18.1,0,32.9,12.21,32.9,27.13v319.72Z"/>
        <path class="cls-27" d="m35.36,373.49c-16.63,0-30.16-11.16-30.16-24.87V28.9c0-13.71,13.53-24.87,30.16-24.87h148.73c16.63,0,30.16,11.16,30.16,24.87v319.72c0,13.71-13.53,24.87-30.16,24.87,0,0-148.73,0-148.73,0Z"/>
        <path class="cls-27" d="m35.36,372.93c-16.25,0-29.47-10.9-29.47-24.3V28.9c0-13.4,13.22-24.3,29.47-24.3h148.73c16.25,0,29.47,10.9,29.47,24.3v319.72c0,13.4-13.22,24.3-29.47,24.3,0,0-148.73,0-148.73,0Z"/>
        <path class="cls-27" d="m35.36,371.23c-15.12,0-27.42-10.14-27.42-22.61V28.9c0-12.47,12.3-22.61,27.42-22.61h148.73c15.12,0,27.42,10.14,27.42,22.61v319.72c0,12.47-12.3,22.61-27.42,22.61,0,0-148.73,0-148.73,0Z"/>
        <path class="cls-27" d="m129.84,34.46c0,2.06-2.02,3.72-4.51,3.72h-31.3c-2.49,0-4.51-1.67-4.51-3.72s2.02-3.72,4.51-3.72h31.3c2.49,0,4.51,1.67,4.51,3.72Z"/>
        <path class="cls-27" d="m127.32,34.22c0,1.01-1,1.84-2.23,1.84h-31.02c-1.23,0-2.23-.82-2.23-1.84s1-1.84,2.23-1.84h31.02c1.23,0,2.23.82,2.23,1.84Z"/>
        <path class="cls-27" d="m126.41,34.81l.59-.49.29.24s.01-.1.02-.14l-.21-.17.22-.18s0-.1-.02-.14l-.29.24-.59-.49.56-.46-.08-.09-.57.47-.59-.49.55-.45-.12-.06-.52.43-.59-.49.19-.15h-.12s-.06-.01-.06-.01l-.1.08-.1-.08h-.19l.2.17-.59.49-.59-.49.2-.17h-.19l-.1.08-.1-.08h-.19l.2.17-.59.49-.59-.49.2-.17h-.19l-.1.08-.1-.08h-.19l.2.17-.59.49-.59-.49.2-.17h-.19l-.1.08-.1-.08h-.19l.2.17-.59.49-.59-.49.2-.17h-.19l-.1.08-.1-.08h-.19l.2.17-.59.49-.59-.49.2-.17h-.19l-.1.08-.1-.08h-.19l.2.17-.59.49-.59-.49.2-.17h-.19l-.1.08-.1-.08h-.19l.2.17-.59.49-.59-.49.2-.17h-.19l-.1.08-.1-.08h-.19l.2.17-.59.49-.59-.49.2-.17h-.19l-.1.08-.1-.08h-.19l.2.17-.59.49-.59-.49.2-.17h-.19l-.1.08-.1-.08h-.19l.2.17-.59.49-.59-.49.2-.17h-.19l-.1.08-.1-.08h-.19l.2.17-.59.49-.59-.49.2-.17h-.19l-.1.08-.1-.08h-.19l.2.17-.59.49-.59-.49.2-.17h-.19l-.1.08-.1-.08h-.19l.2.17-.59.49-.59-.49.2-.17h-.19l-.1.08-.1-.08h-.19l.2.17-.59.49-.59-.49.2-.17h-.19l-.1.08-.1-.08h-.19l.2.17-.59.49-.59-.49.2-.17h-.19l-.1.08-.1-.08h-.19l.2.17-.59.49-.59-.49.2-.17h-.19l-.1.08-.1-.08h-.19l.2.17-.59.49-.59-.49.2-.17h-.19l-.1.08-.1-.08h-.19l.2.17-.59.49-.59-.49.2-.17h-.19l-.1.08-.1-.08h-.19l.2.17-.59.49-.59-.49.2-.17h-.19l-.1.08-.1-.08h-.19l.2.17-.59.49-.59-.49.2-.17h-.19l-.1.08-.1-.08h-.19l.2.17-.59.49-.59-.49.2-.17h-.19l-.1.08-.1-.08h-.19l.2.17-.59.49-.59-.49.2-.17h-.19l-.1.08-.1-.08h-.19l.2.17-.59.49-.59-.49.16-.13c-.14.02-.27.05-.39.09l.04.03-.59.49-.17-.14s-.06.05-.09.08l.17.14-.59.49-.03-.03c-.05.1-.08.2-.11.3l.14-.12.59.49-.59.49-.12-.1c.03.09.06.19.1.28l.02-.02.59.49-.14.12.1.08.14-.12.59.48c.09.03.18.05.28.07l-.08-.07.59-.49.59.49-.14.12h.19l.05-.04.05.04h.19l-.14-.12.59-.49.59.49-.14.12h.19l.05-.04.05.04h.19l-.14-.12.59-.49.59.49-.14.12h.19l.05-.04.05.04h.19l-.14-.12.59-.49.59.49-.14.12h.19l.05-.04.05.04h.19l-.14-.12.59-.49.59.49-.14.12h.19l.05-.04.05.04h.19l-.14-.12.59-.49.59.49-.14.12h.19l.05-.04.05.04h.19l-.14-.12.59-.49.59.49-.14.12h.19l.05-.04.05.04h.19l-.14-.12.59-.49.59.49-.14.12h.19l.05-.04.05.04h.19l-.14-.12.59-.49.59.49-.14.12h.19l.05-.04.05.04h.19l-.14-.12.59-.49.59.49-.14.12h.19l.05-.04.05.04h.19l-.14-.12.59-.49.59.49-.14.12h.19l.05-.04.05.04h.19l-.14-.12.59-.49.59.49-.14.12h.19l.05-.04.05.04h.19l-.14-.12.59-.49.59.49-.14.12h.19l.05-.04.05.04h.19l-.14-.12.59-.49.59.49-.14.12h.19l.05-.04.05.04h.19l-.14-.12.59-.49.59.49-.14.12h.19l.05-.04.05.04h.19l-.14-.12.59-.49.59.49-.14.12h.19l.05-.04.05.04h.19l-.14-.12.59-.49.59.49-.14.12h.19l.05-.04.05.04h.19l-.14-.12.59-.49.59.49-.14.12h.19l.05-.04.05.04h.19l-.14-.12.59-.49.59.49-.14.12h.19l.05-.04.05.04h.19l-.14-.12.59-.49.59.49-.14.12h.19l.05-.04.05.04h.19l-.14-.12.59-.49.59.49-.14.12h.19l.05-.04.05.04h.19l-.14-.12.59-.49.59.49-.14.12h.19l.05-.04.05.04h.19l-.14-.12.59-.49.59.49-.14.12h.19l.05-.04.05.04h.11s.05,0,.07,0l-.14-.11.59-.49.48.4.12-.06-.51-.42.59-.49.55.45s.06-.06.09-.09l-.6-.44h0Zm-.19-1.13l-.59.49-.59-.49.59-.49.59.49Zm-.69.57l-.59.49-.59-.49.59-.49.59.49Zm-.59-1.62l.59.49-.59.49-.59-.49.59-.49Zm-.1,1.05l-.59.49-.59-.49.59-.49.59.49Zm-.69.57l-.59.49-.59-.49.59-.49.59.49Zm-.59-1.62l.59.49-.59.49-.59-.49.59-.49Zm-.1,1.05l-.59.49-.59-.49.59-.49.59.49Zm-.69.57l-.59.49-.59-.49.59-.49.59.49Zm-.59-1.62l.59.49-.59.49-.59-.49.59-.49Zm-.1,1.05l-.59.49-.59-.49.59-.49.59.49Zm-.69.57l-.59.49-.59-.49.59-.49.59.49Zm-.59-1.62l.59.49-.59.49-.59-.49.59-.49Zm-.1,1.05l-.59.49-.59-.49.59-.49.59.49Zm-.69.57l-.59.49-.59-.49.59-.49.59.49Zm-.59-1.62l.59.49-.59.49-.59-.49.59-.49Zm-.1,1.05l-.59.49-.59-.49.59-.49.59.49Zm-.69.57l-.59.49-.59-.49.59-.49.59.49Zm-.59-1.62l.59.49-.59.49-.59-.49.59-.49Zm-.1,1.05l-.59.49-.59-.49.59-.49.59.49Zm-.69.57l-.59.49-.59-.49.59-.49.59.49Zm-.59-1.62l.59.49-.59.49-.59-.49.59-.49Zm-.1,1.05l-.59.49-.59-.49.59-.49.59.49Zm-.69.57l-.59.49-.59-.49.59-.49.59.49Zm-.59-1.62l.59.49-.59.49-.59-.49.59-.49Zm-.1,1.05l-.59.49-.59-.49.59-.49.59.49Zm-.69.57l-.59.49-.59-.49.59-.49.59.49Zm-.59-1.62l.59.49-.59.49-.59-.49.59-.49Zm-.1,1.05l-.59.49-.59-.49.59-.49.59.49Zm-.69.57l-.59.49-.59-.49.59-.49.59.49Zm-.59-1.62l.59.49-.59.49-.59-.49.59-.49Zm-.1,1.05l-.59.49-.59-.49.59-.49.59.49Zm-.69.57l-.59.49-.59-.49.59-.49.59.49Zm-.59-1.62l.59.49-.59.49-.59-.49.59-.49Zm-.1,1.05l-.59.49-.59-.49.59-.49.59.49Zm-.69.57l-.59.49-.59-.49.59-.49.59.49Zm-.59-1.62l.59.49-.59.49-.59-.49.59-.49Zm-.1,1.05l-.59.49-.59-.49.59-.49.59.49Zm-.69.57l-.59.49-.59-.49.59-.49.59.49Zm-.59-1.62l.59.49-.59.49-.59-.49.59-.49Zm-.1,1.05l-.59.49-.59-.49.59-.49.59.49Zm-.69.57l-.59.49-.59-.49.59-.49.59.49Zm-.59-1.62l.59.49-.59.49-.59-.49.59-.49Zm-.1,1.05l-.59.49-.59-.49.59-.49.59.49Zm-.69.57l-.59.49-.59-.49.59-.49.59.49Zm-.59-1.62l.59.49-.59.49-.59-.49.59-.49Zm-.1,1.05l-.59.49-.59-.49.59-.49.59.49Zm-.69.57l-.59.49-.59-.49.59-.49.59.49Zm-.59-1.62l.59.49-.59.49-.59-.49.59-.49Zm-.1,1.05l-.59.49-.59-.49.59-.49.59.49Zm-.69.57l-.59.49-.59-.49.59-.49.59.49Zm-.59-1.62l.59.49-.59.49-.59-.49.59-.49Zm-.1,1.05l-.59.49-.59-.49.59-.49.59.49Zm-.69.57l-.59.49-.59-.49.59-.49.59.49Zm-.59-1.62l.59.49-.59.49-.59-.49.59-.49Zm-.1,1.05l-.59.49-.59-.49.59-.49.59.49Zm-.69.57l-.59.49-.59-.49.59-.49.59.49Zm-.59-1.62l.59.49-.59.49-.59-.49.59-.49Zm-.1,1.05l-.59.49-.59-.49.59-.49.59.49Zm-.69.57l-.59.49-.59-.49.59-.49.59.49Zm-.59-1.62l.59.49-.59.49-.59-.49.59-.49Zm-.1,1.05l-.59.49-.59-.49.59-.49.59.49Zm-.69.57l-.59.49-.59-.49.59-.49.59.49Zm-.59-1.62l.59.49-.59.49-.59-.49.59-.49Zm-.1,1.05l-.59.49-.59-.49.59-.49.59.49Zm-.69.57l-.59.49-.59-.49.59-.49.59.49Zm-.59-1.62l.59.49-.59.49-.59-.49.59-.49Zm-.1,1.05l-.59.49-.59-.49.59-.49.59.49Zm-.69.57l-.59.49-.59-.49.59-.49.59.49Zm-.59-1.62l.59.49-.59.49-.59-.49.59-.49Zm-.1,1.05l-.59.49-.59-.49.59-.49.59.49Zm-.69.57l-.59.49-.59-.49.59-.49.59.49Zm-.59-1.62l.59.49-.59.49-.59-.49.59-.49Zm-1.27,1.05l.59-.49.59.49-.59.49-.59-.49Zm0,1.13l.59-.49.59.49-.59.49-.59-.49Zm1.27,1.05l-.59-.49.59-.49.59.49-.59.49Zm.1-1.05l.59-.49.59.49-.59.49-.59-.49Zm1.27,1.05l-.59-.49.59-.49.59.49-.59.49Zm.1-1.05l.59-.49.59.49-.59.49-.59-.49Zm1.27,1.05l-.59-.49.59-.49.59.49-.59.49Zm.1-1.05l.59-.49.59.49-.59.49-.59-.49Zm1.27,1.05l-.59-.49.59-.49.59.49-.59.49Zm.1-1.05l.59-.49.59.49-.59.49-.59-.49Zm1.27,1.05l-.59-.49.59-.49.59.49-.59.49Zm.1-1.05l.59-.49.59.49-.59.49-.59-.49Zm1.27,1.05l-.59-.49.59-.49.59.49-.59.49Zm.1-1.05l.59-.49.59.49-.59.49-.59-.49Zm1.27,1.05l-.59-.49.59-.49.59.49-.59.49Zm.1-1.05l.59-.49.59.49-.59.49-.59-.49Zm1.27,1.05l-.59-.49.59-.49.59.49-.59.49Zm.1-1.05l.59-.49.59.49-.59.49-.59-.49Zm1.27,1.05l-.59-.49.59-.49.59.49-.59.49Zm.1-1.05l.59-.49.59.49-.59.49-.59-.49Zm1.27,1.05l-.59-.49.59-.49.59.49-.59.49Zm.1-1.05l.59-.49.59.49-.59.49-.59-.49Zm1.27,1.05l-.59-.49.59-.49.59.49-.59.49Zm.1-1.05l.59-.49.59.49-.59.49-.59-.49Zm1.27,1.05l-.59-.49.59-.49.59.49-.59.49Zm.1-1.05l.59-.49.59.49-.59.49-.59-.49Zm1.27,1.05l-.59-.49.59-.49.59.49-.59.49Zm.1-1.05l.59-.49.59.49-.59.49-.59-.49Zm1.27,1.05l-.59-.49.59-.49.59.49-.59.49Zm.1-1.05l.59-.49.59.49-.59.49-.59-.49Zm1.27,1.05l-.59-.49.59-.49.59.49-.59.49Zm.1-1.05l.59-.49.59.49-.59.49-.59-.49Zm1.27,1.05l-.59-.49.59-.49.59.49-.59.49Zm.1-1.05l.59-.49.59.49-.59.49-.59-.49Zm1.27,1.05l-.59-.49.59-.49.59.49-.59.49Zm.1-1.05l.59-.49.59.49-.59.49-.59-.49Zm1.27,1.05l-.59-.49.59-.49.59.49-.59.49Zm.1-1.05l.59-.49.59.49-.59.49-.59-.49Zm1.27,1.05l-.59-.49.59-.49.59.49-.59.49Zm.1-1.05l.59-.49.59.49-.59.49-.59-.49Zm1.27,1.05l-.59-.49.59-.49.59.49-.59.49Zm.1-1.05l.59-.49.59.49-.59.49-.59-.49Zm1.27,1.05l-.59-.49.59-.49.59.49-.59.49Zm.1-1.05l.59-.49.59.49-.59.49-.59-.49Zm1.27,1.05l-.59-.49.59-.49.59.49-.59.49Zm.1-1.05l.59-.49.59.49-.59.49-.59-.49Zm1.27,1.05l-.59-.49.59-.49.59.49-.59.49Zm.1-1.05l.59-.49.59.49-.59.49-.59-.49Zm1.27,1.05l-.59-.49.59-.49.59.49-.59.49Zm.69-.57l-.59-.49.59-.49.59.49-.59.49Zm.1-1.05l.59-.49.59.49-.59.49-.59-.49Z"/>
        <path class="cls-27" d="m126.63,32.89l.09.07-.09-.07Z"/>
        <path class="cls-27" d="m113.73,20.28c0-1.85-1.82-3.34-4.06-3.34s-4.06,1.5-4.06,3.34,1.82,3.34,4.06,3.34,4.06-1.5,4.06-3.34"/>
        <path class="cls-27" d="m111.46,20.28c0-.81-.8-1.47-1.78-1.47-.99,0-1.79.66-1.79,1.47h0c0,.82.8,1.48,1.78,1.48s1.78-.66,1.78-1.47"/>
        <path class="cls-27" d="m109.23,20.81c0-.19-.19-.35-.42-.35s-.42.16-.42.35h0c0,.19.19.35.42.35s.42-.16.42-.35"/>
        <path class="cls-27" d="m111.13,19.76c0-.19-.19-.35-.42-.35s-.42.16-.42.35.19.35.42.35.42-.16.42-.35"/>
        <path class="cls-27" d="m109.73,19.64c0-.29-.28-.52-.63-.52s-.63.23-.63.52.28.52.63.52.63-.23.63-.52"/>
        <path class="cls-27" d="m203.01,322.62c0,1.24-1.23,2.26-2.74,2.26H18.62c-1.51,0-2.74-1.02-2.74-2.26V55.46c0-1.24,1.23-2.26,2.74-2.26h181.65c1.51,0,2.74,1.02,2.74,2.26v267.16Z"/>
        <path class="cls-27" d="m18.39,55.65h182.33v267.59H18.39V55.65Z"/>
        <path class="cls-27" d="m211.52,28.9c0-12.47-12.3-22.61-27.42-22.61h-90.49l10.23,24.45h21.5c2.49,0,4.51,1.67,4.51,3.72s-2.02,3.72-4.51,3.72h-18.38l104.57,249.86V28.9h0Zm-101.84-5.28c-2.24,0-4.06-1.5-4.06-3.34s1.82-3.34,4.06-3.34,4.06,1.5,4.06,3.34-1.82,3.34-4.06,3.34Z"/>
        <path class="cls-27" d="m128.64,348.38c0-9.18-9.03-16.63-20.16-16.63-11.14,0-20.16,7.44-20.17,16.62h0c0,9.19,9.03,16.63,20.16,16.63,11.14,0,20.16-7.44,20.17-16.62h0"/>
        <path class="cls-27" d="m108.47,332.12c11.06,0,20.04,7.35,20.15,16.45,0-.06.01-.12.01-.18,0-9.18-9.03-16.63-20.16-16.63s-20.16,7.44-20.16,16.63c0,.06,0,.12.01.18.12-9.1,9.09-16.45,20.15-16.45Z"/>
        <path class="cls-27" d="m112.07,354.56h-7.24c-2.27,0-4.11-1.52-4.11-3.39v-5.89c0-1.87,1.85-3.39,4.11-3.39h7.24c2.27,0,4.11,1.52,4.11,3.39v5.89c0,1.87-1.85,3.39-4.11,3.39Zm-7.24-11.54c-1.51,0-2.74,1.01-2.74,2.26v5.89c0,1.25,1.23,2.26,2.74,2.26h7.24c1.51,0,2.74-1.01,2.74-2.26v-5.89c0-1.25-1.23-2.26-2.74-2.26h-7.24Z"/>
        <path class="cls-27" d="m108.47,349.8c-7.42,0-14.33-.4-20.14-1.1.2,9.04,9.14,16.31,20.14,16.31s19.94-7.28,20.14-16.31c-5.81.69-12.72,1.1-20.14,1.1Z"/>
      </g>
      <g>
        <path class="cls-1" d="m162.58,27.26c0,.55-.45,1-1,1h-23.31c-.55,0-1-.45-1-1v-3.06c0-.55.45-1,1-1h23.31c.55,0,1,.45,1,1v3.06Z"/>
        <path class="cls-2" d="m137.38,23.76h25.09c-.16-.33-.5-.56-.89-.56h-23.31c-.39,0-.72.23-.89.56Z"/>
        <path class="cls-15" d="m36.33,84.22c0,.55-.45,1-1,1h-3.75c-.55,0-1-.45-1-1v-12.71c0-.55.45-1,1-1h3.75c.55,0,1,.45,1,1v12.71Z"/>
        <path class="cls-6" d="m31.25,70.58c-.39.14-.67.5-.67.93v12.71c0,.43.28.79.67.93v-14.57Z"/>
        <path class="cls-16" d="m35.53,112.11c0,.55-.45,1-1,1h-2.78c-.55,0-1-.45-1-1v-9.41c0-.55.45-1,1-1h2.78c.55,0,1,.45,1,1v9.41Z"/>
        <path class="cls-7" d="m31.25,101.86c-.29.18-.5.48-.5.85v9.41c0,.36.21.67.5.85v-11.1Z"/>
        <path class="cls-14" d="m35.53,139.57c0,.55-.45,1-1,1h-2.78c-.55,0-1-.45-1-1v-9.41c0-.55.45-1,1-1h2.78c.55,0,1,.45,1,1v9.41Z"/>
        <path class="cls-8" d="m31.25,129.31c-.29.18-.5.48-.5.85v9.41c0,.36.21.67.5.85v-11.1Z"/>
        <path class="cls-20" d="m188.87,331.59c0,13.2-10.8,24-24,24H56.38c-13.2,0-24-10.8-24-24V48.76c0-13.2,10.8-24,24-24h108.49c13.2,0,24,10.8,24,24v282.83Z"/>
        <path class="cls-23" d="m56.38,353.59c-12.13,0-22-9.87-22-22V48.76c0-12.13,9.87-22,22-22h108.49c12.13,0,22,9.87,22,22v282.83c0,12.13-9.87,22-22,22,0,0-108.49,0-108.49,0Z"/>
        <path class="cls-24" d="m56.38,353.09c-11.85,0-21.5-9.64-21.5-21.5V48.76c0-11.85,9.65-21.5,21.5-21.5h108.49c11.85,0,21.5,9.65,21.5,21.5v282.83c0,11.86-9.65,21.5-21.5,21.5,0,0-108.49,0-108.49,0Z"/>
        <path class="cls-22" d="m56.38,351.59c-11.03,0-20-8.97-20-20V48.76c0-11.03,8.97-20,20-20h108.49c11.03,0,20,8.97,20,20v282.83c0,11.03-8.97,20-20,20,0,0-108.49,0-108.49,0Z"/>
        <path class="cls-12" d="m125.29,53.68c0,1.82-1.47,3.29-3.29,3.29h-22.83c-1.82,0-3.29-1.47-3.29-3.29s1.47-3.29,3.29-3.29h22.83c1.82,0,3.29,1.47,3.29,3.29Z"/>
        <path class="cls-25" d="m123.46,53.47c0,.9-.73,1.62-1.62,1.62h-22.62c-.9,0-1.62-.73-1.62-1.62s.73-1.62,1.62-1.62h22.62c.9,0,1.62.73,1.62,1.62Z"/>
        <path class="cls-21" d="m122.79,53.99l.43-.43.21.21s0-.08.01-.13l-.15-.15.16-.16s0-.09-.01-.13l-.21.22-.43-.43.41-.41-.06-.08-.42.42-.43-.43.4-.4-.09-.05-.38.38-.43-.43.14-.14h-.09s-.04,0-.04,0l-.07.08-.07-.08h-.14l.15.15-.43.43-.43-.43.15-.15h-.14l-.07.08-.07-.08h-.14l.15.15-.43.43-.43-.43.15-.15h-.14l-.07.08-.07-.08h-.14l.15.15-.43.43-.43-.43.15-.15h-.14l-.07.08-.07-.08h-.14l.15.15-.43.43-.43-.43.15-.15h-.14l-.07.08-.07-.08h-.14l.15.15-.43.43-.43-.43.15-.15h-.14l-.07.08-.07-.08h-.14l.15.15-.43.43-.43-.43.15-.15h-.14l-.07.08-.07-.08h-.14l.15.15-.43.43-.43-.43.15-.15h-.14l-.07.08-.07-.08h-.14l.15.15-.43.43-.43-.43.15-.15h-.14l-.07.08-.07-.08h-.14l.15.15-.43.43-.43-.43.15-.15h-.14l-.07.08-.07-.08h-.14l.15.15-.43.43-.43-.43.15-.15h-.14l-.07.08-.07-.08h-.14l.15.15-.43.43-.43-.43.15-.15h-.14l-.07.08-.07-.08h-.14l.15.15-.43.43-.43-.43.15-.15h-.14l-.07.08-.07-.08h-.14l.15.15-.43.43-.43-.43.15-.15h-.14l-.07.08-.07-.08h-.14l.15.15-.43.43-.43-.43.15-.15h-.14l-.07.08-.07-.08h-.14l.15.15-.43.43-.43-.43.15-.15h-.14l-.07.08-.07-.08h-.14l.15.15-.43.43-.43-.43.15-.15h-.14l-.07.08-.07-.08h-.14l.15.15-.43.43-.43-.43.15-.15h-.14l-.07.08-.07-.08h-.14l.15.15-.43.43-.43-.43.15-.15h-.14l-.07.08-.07-.08h-.14l.15.15-.43.43-.43-.43.15-.15h-.14l-.07.08-.07-.08h-.14l.15.15-.43.43-.43-.43.15-.15h-.14l-.07.08-.07-.08h-.14l.15.15-.43.43-.43-.43.15-.15h-.14l-.07.08-.07-.08h-.14l.15.15-.43.43-.43-.43.15-.15h-.14l-.07.08-.07-.08h-.14l.15.15-.43.43-.43-.43.11-.12c-.1.02-.19.05-.29.08l.03.03-.43.43-.12-.12s-.05.05-.07.07l.12.12-.43.43-.02-.02c-.03.09-.06.17-.08.27l.1-.1.43.43-.43.43-.09-.09c.02.08.04.17.08.24h.01s.43.42.43.42l-.11.1.07.07.1-.1.43.43c.07.02.13.05.2.06l-.06-.06.43-.43.43.43-.1.1h.14l.03-.03.03.03h.14l-.1-.1.43-.43.43.43-.1.1h.14l.03-.03.03.03h.14l-.1-.1.43-.43.43.43-.1.1h.14l.03-.03.03.03h.14l-.1-.1.43-.43.43.43-.1.1h.14l.03-.03.03.03h.14l-.1-.1.43-.43.43.43-.1.1h.14l.03-.03.03.03h.14l-.1-.1.43-.43.43.43-.1.1h.14l.03-.03.03.03h.14l-.1-.1.43-.43.43.43-.1.1h.14l.03-.03.03.03h.14l-.1-.1.43-.43.43.43-.1.1h.14l.03-.03.03.03h.14l-.1-.1.43-.43.43.43-.1.1h.14l.03-.03.03.03h.14l-.1-.1.43-.43.43.43-.1.1h.14l.03-.03.03.03h.14l-.1-.1.43-.43.43.43-.1.1h.14l.03-.03.03.03h.14l-.1-.1.43-.43.43.43-.1.1h.14l.03-.03.03.03h.14l-.1-.1.43-.43.43.43-.1.1h.14l.03-.03.03.03h.14l-.1-.1.43-.43.43.43-.1.1h.14l.03-.03.03.03h.14l-.1-.1.43-.43.43.43-.1.1h.14l.03-.03.03.03h.14l-.1-.1.43-.43.43.43-.1.1h.14l.03-.03.03.03h.14l-.1-.1.43-.43.43.43-.1.1h.14l.03-.03.03.03h.14l-.1-.1.43-.43.43.43-.1.1h.14l.03-.03.03.03h.14l-.1-.1.43-.43.43.43-.1.1h.14l.03-.03.03.03h.14l-.1-.1.43-.43.43.43-.1.1h.14l.03-.03.03.03h.14l-.1-.1.43-.43.43.43-.1.1h.14l.03-.03.03.03h.14l-.1-.1.43-.43.43.43-.1.1h.14l.03-.03.03.03h.14l-.1-.1.43-.43.43.43-.1.1h.14l.03-.03.03.03h.08s.04,0,.05,0l-.1-.1.43-.43.35.35.09-.05-.37-.37.43-.43.4.4s.04-.05.06-.08l-.44-.39h0Zm-.14-1l-.43.43-.43-.43.43-.43.43.43Zm-.5.5l-.43.43-.43-.43.43-.43.43.43Zm-.43-1.43l.43.43-.43.43-.43-.43.43-.43Zm-.07.93l-.43.43-.43-.43.43-.43.43.43Zm-.5.5l-.43.43-.43-.43.43-.43.43.43Zm-.43-1.43l.43.43-.43.43-.43-.43.43-.43Zm-.07.93l-.43.43-.43-.43.43-.43.43.43Zm-.5.5l-.43.43-.43-.43.43-.43.43.43Zm-.43-1.43l.43.43-.43.43-.43-.43.43-.43Zm-.07.93l-.43.43-.43-.43.43-.43.43.43Zm-.5.5l-.43.43-.43-.43.43-.43.43.43Zm-.43-1.43l.43.43-.43.43-.43-.43.43-.43Zm-.07.93l-.43.43-.43-.43.43-.43.43.43Zm-.5.5l-.43.43-.43-.43.43-.43.43.43Zm-.43-1.43l.43.43-.43.43-.43-.43.43-.43Zm-.07.93l-.43.43-.43-.43.43-.43.43.43Zm-.5.5l-.43.43-.43-.43.43-.43.43.43Zm-.43-1.43l.43.43-.43.43-.43-.43.43-.43Zm-.07.93l-.43.43-.43-.43.43-.43.43.43Zm-.5.5l-.43.43-.43-.43.43-.43.43.43Zm-.43-1.43l.43.43-.43.43-.43-.43.43-.43Zm-.07.93l-.43.43-.43-.43.43-.43.43.43Zm-.5.5l-.43.43-.43-.43.43-.43.43.43Zm-.43-1.43l.43.43-.43.43-.43-.43.43-.43Zm-.07.93l-.43.43-.43-.43.43-.43.43.43Zm-.5.5l-.43.43-.43-.43.43-.43.43.43Zm-.43-1.43l.43.43-.43.43-.43-.43.43-.43Zm-.07.93l-.43.43-.43-.43.43-.43.43.43Zm-.5.5l-.43.43-.43-.43.43-.43.43.43Zm-.43-1.43l.43.43-.43.43-.43-.43.43-.43Zm-.07.93l-.43.43-.43-.43.43-.43.43.43Zm-.5.5l-.43.43-.43-.43.43-.43.43.43Zm-.43-1.43l.43.43-.43.43-.43-.43.43-.43Zm-.07.93l-.43.43-.43-.43.43-.43.43.43Zm-.5.5l-.43.43-.43-.43.43-.43.43.43Zm-.43-1.43l.43.43-.43.43-.43-.43.43-.43Zm-.07.93l-.43.43-.43-.43.43-.43.43.43Zm-.5.5l-.43.43-.43-.43.43-.43.43.43Zm-.43-1.43l.43.43-.43.43-.43-.43.43-.43Zm-.07.93l-.43.43-.43-.43.43-.43.43.43Zm-.5.5l-.43.43-.43-.43.43-.43.43.43Zm-.43-1.43l.43.43-.43.43-.43-.43.43-.43Zm-.07.93l-.43.43-.43-.43.43-.43.43.43Zm-.5.5l-.43.43-.43-.43.43-.43.43.43Zm-.43-1.43l.43.43-.43.43-.43-.43.43-.43Zm-.07.93l-.43.43-.43-.43.43-.43.43.43Zm-.5.5l-.43.43-.43-.43.43-.43.43.43Zm-.43-1.43l.43.43-.43.43-.43-.43.43-.43Zm-.07.93l-.43.43-.43-.43.43-.43.43.43Zm-.5.5l-.43.43-.43-.43.43-.43.43.43Zm-.43-1.43l.43.43-.43.43-.43-.43.43-.43Zm-.07.93l-.43.43-.43-.43.43-.43.43.43Zm-.5.5l-.43.43-.43-.43.43-.43.43.43Zm-.43-1.43l.43.43-.43.43-.43-.43.43-.43Zm-.07.93l-.43.43-.43-.43.43-.43.43.43Zm-.5.5l-.43.43-.43-.43.43-.43.43.43Zm-.43-1.43l.43.43-.43.43-.43-.43.43-.43Zm-.07.93l-.43.43-.43-.43.43-.43.43.43Zm-.5.5l-.43.43-.43-.43.43-.43.43.43Zm-.43-1.43l.43.43-.43.43-.43-.43.43-.43Zm-.07.93l-.43.43-.43-.43.43-.43.43.43Zm-.5.5l-.43.43-.43-.43.43-.43.43.43Zm-.43-1.43l.43.43-.43.43-.43-.43.43-.43Zm-.07.93l-.43.43-.43-.43.43-.43.43.43Zm-.5.5l-.43.43-.43-.43.43-.43.43.43Zm-.43-1.43l.43.43-.43.43-.43-.43.43-.43Zm-.07.93l-.43.43-.43-.43.43-.43.43.43Zm-.5.5l-.43.43-.43-.43.43-.43.43.43Zm-.43-1.43l.43.43-.43.43-.43-.43.43-.43Zm-.07.93l-.43.43-.43-.43.43-.43.43.43Zm-.5.5l-.43.43-.43-.43.43-.43.43.43Zm-.43-1.43l.43.43-.43.43-.43-.43.43-.43Zm-.93.93l.43-.43.43.43-.43.43-.43-.43Zm0,1l.43-.43.43.43-.43.43-.43-.43Zm.93.93l-.43-.43.43-.43.43.43-.43.43Zm.07-.93l.43-.43.43.43-.43.43-.43-.43Zm.93.93l-.43-.43.43-.43.43.43-.43.43Zm.07-.93l.43-.43.43.43-.43.43-.43-.43Zm.93.93l-.43-.43.43-.43.43.43-.43.43Zm.07-.93l.43-.43.43.43-.43.43-.43-.43Zm.93.93l-.43-.43.43-.43.43.43-.43.43Zm.07-.93l.43-.43.43.43-.43.43-.43-.43Zm.93.93l-.43-.43.43-.43.43.43-.43.43Zm.07-.93l.43-.43.43.43-.43.43-.43-.43Zm.93.93l-.43-.43.43-.43.43.43-.43.43Zm.07-.93l.43-.43.43.43-.43.43-.43-.43Zm.93.93l-.43-.43.43-.43.43.43-.43.43Zm.07-.93l.43-.43.43.43-.43.43-.43-.43Zm.93.93l-.43-.43.43-.43.43.43-.43.43Zm.07-.93l.43-.43.43.43-.43.43-.43-.43Zm.93.93l-.43-.43.43-.43.43.43-.43.43Zm.07-.93l.43-.43.43.43-.43.43-.43-.43Zm.93.93l-.43-.43.43-.43.43.43-.43.43Zm.07-.93l.43-.43.43.43-.43.43-.43-.43Zm.93.93l-.43-.43.43-.43.43.43-.43.43Zm.07-.93l.43-.43.43.43-.43.43-.43-.43Zm.93.93l-.43-.43.43-.43.43.43-.43.43Zm.07-.93l.43-.43.43.43-.43.43-.43-.43Zm.93.93l-.43-.43.43-.43.43.43-.43.43Zm.07-.93l.43-.43.43.43-.43.43-.43-.43Zm.93.93l-.43-.43.43-.43.43.43-.43.43Zm.07-.93l.43-.43.43.43-.43.43-.43-.43Zm.93.93l-.43-.43.43-.43.43.43-.43.43Zm.07-.93l.43-.43.43.43-.43.43-.43-.43Zm.93.93l-.43-.43.43-.43.43.43-.43.43Zm.07-.93l.43-.43.43.43-.43.43-.43-.43Zm.93.93l-.43-.43.43-.43.43.43-.43.43Zm.07-.93l.43-.43.43.43-.43.43-.43-.43Zm.93.93l-.43-.43.43-.43.43.43-.43.43Zm.07-.93l.43-.43.43.43-.43.43-.43-.43Zm.93.93l-.43-.43.43-.43.43.43-.43.43Zm.07-.93l.43-.43.43.43-.43.43-.43-.43Zm.93.93l-.43-.43.43-.43.43.43-.43.43Zm.07-.93l.43-.43.43.43-.43.43-.43-.43Zm.93.93l-.43-.43.43-.43.43.43-.43.43Zm.07-.93l.43-.43.43.43-.43.43-.43-.43Zm.93.93l-.43-.43.43-.43.43.43-.43.43Zm.07-.93l.43-.43.43.43-.43.43-.43-.43Zm.93.93l-.43-.43.43-.43.43.43-.43.43Zm.07-.93l.43-.43.43.43-.43.43-.43-.43Zm.93.93l-.43-.43.43-.43.43.43-.43.43Zm.5-.5l-.43-.43.43-.43.43.43-.43.43Zm.07-.93l.43-.43.43.43-.43.43-.43-.43Z"/>
        <path class="cls-19" d="m122.95,52.3l.06.06-.06-.06Z"/>
        <path class="cls-17" d="m113.54,41.14c0-1.63-1.32-2.96-2.96-2.96s-2.96,1.32-2.96,2.96,1.32,2.96,2.96,2.96,2.96-1.32,2.96-2.96"/>
        <path class="cls-9" d="m111.89,41.14c0-.72-.58-1.3-1.3-1.3-.72,0-1.3.58-1.3,1.3h0c0,.72.58,1.31,1.3,1.31s1.3-.58,1.3-1.3"/>
        <path class="cls-13" d="m110.26,41.61c0-.17-.14-.31-.31-.31s-.31.14-.31.31h0c0,.17.14.31.31.31s.31-.14.31-.31"/>
        <path class="cls-11" d="m111.64,40.68c0-.17-.14-.31-.31-.31s-.31.14-.31.31.14.31.31.31.31-.14.31-.31"/>
        <path class="cls-10" d="m110.62,40.58c0-.25-.2-.46-.46-.46s-.46.2-.46.46.2.46.46.46.46-.2.46-.46"/>
        <path class="cls-26" d="m178.67,308.59c0,1.1-.9,2-2,2H44.17c-1.1,0-2-.9-2-2V72.26c0-1.1.9-2,2-2h132.5c1.1,0,2,.9,2,2v236.33Z"/>
        <path class="cls-27" d="m44,72.43h133v236.71H44V72.43Z"/>
        <path class="cls-18" d="m184.87,48.76c0-11.03-8.97-20-20-20h-66.01l7.46,21.62h15.68c1.82,0,3.29,1.47,3.29,3.29s-1.47,3.29-3.29,3.29h-13.41l76.28,221.03V48.76h0Zm-74.28-4.67c-1.63,0-2.96-1.33-2.96-2.96s1.32-2.96,2.96-2.96,2.96,1.33,2.96,2.96-1.32,2.96-2.96,2.96Z"/>
        <path class="cls-22" d="m124.42,331.38c0-8.12-6.58-14.71-14.71-14.71-8.12,0-14.71,6.58-14.71,14.71h0c0,8.13,6.58,14.71,14.71,14.71,8.12,0,14.71-6.58,14.71-14.71h0"/>
        <path class="cls-4" d="m109.71,316.99c8.07,0,14.62,6.5,14.7,14.55,0-.05,0-.1,0-.16,0-8.12-6.58-14.71-14.71-14.71s-14.71,6.58-14.71,14.71c0,.05,0,.1,0,.16.08-8.05,6.63-14.55,14.7-14.55Z"/>
        <path class="cls-3" d="m112.33,336.85h-5.28c-1.65,0-3-1.35-3-3v-5.21c0-1.65,1.35-3,3-3h5.28c1.65,0,3,1.35,3,3v5.21c0,1.65-1.35,3-3,3Zm-5.28-10.21c-1.1,0-2,.9-2,2v5.21c0,1.1.9,2,2,2h5.28c1.1,0,2-.9,2-2v-5.21c0-1.1-.9-2-2-2h-5.28Z"/>
        <path class="cls-5" d="m109.71,332.64c-5.42,0-10.46-.36-14.69-.97.15,7.99,6.67,14.43,14.69,14.43s14.54-6.44,14.69-14.43c-4.24.61-9.28.97-14.69.97Z"/>
      </g>
    </g>
  </g>
</svg>