<?xml version="1.0" encoding="UTF-8"?>
<svg id="Layer_2" data-name="Layer 2" xmlns="http://www.w3.org/2000/svg" viewBox="0 0 1278.4 995.73">
  <defs>
    <style>
      .cls-1 {
        fill: rgba(255, 255, 255, .24);
      }

      .cls-1, .cls-2 {
        stroke-width: 0px;
      }

      .cls-2 {
        fill: #fff;
      }
    </style>
  </defs>
  <g id="Layer_1-2" data-name="Layer 1">
    <g>
      <path class="cls-2" d="m3.5,931.38c0,35.65,28.69,64.34,64.34,64.34h1143.5c35.65,0,64.34-28.69,64.34-64.34V65.41c0-35.65-28.69-64.38-64.34-64.38H67.84c-35.65,0-64.34,28.72-64.34,64.37,0,0,0,865.97,0,865.97Zm2.47-3.59V67.34c0-35.49,28.57-64.06,64.06-64.06h1138.3c35.49,0,64.06,28.57,64.06,64.06v862.09c0,35.49-28.57,64.06-64.06,64.06l-1138.3-1.66c-35.49,0-64.06-28.57-64.06-64.06h0Z"/>
      <path class="cls-2" d="m141.9.45v2.44s15.14,0,15.14,0v-1.04c0-.73-.81-1.41-2.12-1.41h-13.02s0,0,0,0Z"/>
      <path class="cls-2" d="m202.04,1.15v1.75s30.98,0,30.98,0v-1.22C230.65,1.43,220.99,0,218.47,0h-15.89c-.3,0-.55.51-.55,1.15h0Z"/>
      <path class="cls-2" d="m282.24,1.15v1.75h-30.98v-1.22C253.62,1.43,263.28,0,265.8,0h15.89c.3,0,.55.51.55,1.15h0Z"/>
      <path class="cls-2" d="m202.04,2.85h30.98s0-1.11,0-1.11h-30.98s0,1.11,0,1.11Z"/>
      <path class="cls-2" d="m251.26,2.85h30.98s0-1.11,0-1.11h-30.98s0,1.11,0,1.11Z"/>
      <path class="cls-2" d="m141.9,1.75v1.11s15.14,0,15.14,0v-1.11s-15.14,0-15.14,0Z"/>
      <path class="cls-1" d="m11.96,929.44V69.01c0-35.38,28.68-64.07,64.07-64.07h1138.3c35.38,0,64.07,28.68,64.07,64.07v860.43c0,35.38-28.68,64.07-64.07,64.07H76.03c-35.38,0-64.07-28.68-64.07-64.07"/>
      <path class="cls-2" d="m3.5,931.38c0,35.65,28.69,64.34,64.34,64.34h1143.5c35.65,0,64.34-28.69,64.34-64.34V67.07c0-35.65-28.69-64.38-64.34-64.38H67.84c-35.65,0-64.34,28.72-64.34,64.37v864.31h0Zm2.47-1.94V69c0-35.49,28.57-64.06,64.06-64.06h1138.3c35.49,0,64.06,28.57,64.06,64.06v860.44c0,35.49-28.57,64.06-64.06,64.06H70.03c-35.49,0-64.06-28.57-64.06-64.06h0Z"/>
      <path class="cls-2" d="m5.97,929.44c0,35.49,28.57,64.06,64.06,64.06h1138.3c35.49,0,64.06-28.57,64.06-64.06V69c0-35.49-28.57-64.06-64.06-64.06H70.03c-35.49,0-64.06,28.57-64.06,64.06v860.44h0Zm4.41-1.22V70.22c0-33.78,27.19-60.97,60.97-60.97h1133.4c33.78,0,60.97,27.19,60.97,60.97v858c0,33.78-27.19,60.97-60.97,60.97H71.34c-33.78,0-60.97-27.19-60.97-60.97h0Z"/>
      <path class="cls-1" d="m10.38,928.23c0,33.78,27.19,60.97,60.97,60.97h1133.4c14.99,0,28.69-5.37,39.28-14.28-10.43,8.31-23.65,13.28-38.09,13.28H71.93c-33.79,0-61-27.14-61-60.84V71.1c0-33.71,27.21-60.84,61-60.84h1134c14.49,0,27.75,4.99,38.19,13.34-10.61-8.96-24.34-14.34-39.37-14.34H71.34c-33.78,0-60.97,27.19-60.97,60.97v858s0,0,0,0Z"/>
      <path class="cls-2" d="m10.94,927.35c0,33.71,27.21,60.84,61,60.84h1134c33.79,0,61-27.14,61-60.84V71.1c0-33.71-27.21-60.84-61-60.84H71.94c-33.79,0-61,27.14-61,60.84v856.25Z"/>
      <path class="cls-2" d="m10.94,927.35c0,33.71,27.21,60.84,61,60.84h1134c33.79,0,61-27.14,61-60.84V70c0-33.71-27.21-60.84-61-60.84H71.94c-33.79,0-61,25.2-61,58.91v859.29s0,0,0,0Zm1.31-.75V68.97c0-33.64,27.17-58.79,60.91-58.79h1131.9c33.73,0,60.91,27.08,60.91,60.72v855.7c0,33.64-27.18,60.72-60.91,60.72H73.16c-33.73,0-60.91-27.08-60.91-60.72h0Z"/>
      <path class="cls-2" d="m19.47,933.48V67.41c0-26.49,21.47-47.96,47.96-47.96h1143.9c26.49,0,47.96,21.47,47.96,47.96h0v866.07c0,26.49-21.47,47.96-47.96,47.96H67.43c-26.49,0-47.96-21.47-47.96-47.96h0"/>
      <path class="cls-2" d="m3.5,931.38c0,35.65,28.69,64.34,64.34,64.34l2.19-2.22c-35.49,0-64.06-28.57-64.06-64.06v-24.08s-2.47,0-2.47,0v26.02h0Z"/>
      <path class="cls-2" d="m5.97,69.05c0-35.49,28.57-64.06,64.06-64.06h62.92s0-2.25,0-2.25h-65.11c-35.65,0-64.34,28.72-64.34,64.37v451.75s2.47,0,2.47,0V69.04s0,0,0,0h0Z"/>
      <path class="cls-2" d="m1208.34,4.95c35.49,0,64.06,28.57,64.06,64.06l3.25-1.94c0-35.65-28.69-64.38-64.34-64.38l-2.97,2.25h0Z"/>
      <path class="cls-2" d="m1211.34,995.73c35.65,0,64.34-28.69,64.34-64.34l-3.25-1.94c0,35.49-28.57,64.06-64.06,64.06l2.97,2.22h0Z"/>
      <path class="cls-2" d="m5.97,278.05h4.41s0-207.84,0-207.84c0-33.78,27.19-60.97,60.97-60.97h639.8s0-4.31,0-4.31H70.03c-35.49,0-64.06,28.57-64.06,64.06v209.06h0Z"/>
      <path class="cls-2" d="m124.22,885.41h1031s0-776,0-776H124.22s0,776,0,776h0Zm3-4V113.41h1024v768H127.22Z"/>
      <path class="cls-2" d="m127.22,881.43V113.43h1024v768H127.22Z"/>
      <path class="cls-2" d="m1215.44,468.66c15.77,0,28.55,12.78,28.55,28.55,0,15.77-12.78,28.55-28.55,28.55h0c-15.77,0-28.56-12.77-28.56-28.54,0-15.77,12.77-28.56,28.54-28.56h.03s0,0,0,0Z"/>
      <path class="cls-2" d="m1215.44,469.65c-15.21,0-27.55,12.33-27.55,27.55s12.33,27.55,27.55,27.55c2.63,0,5.18-.37,7.59-1.06,8.13-21.09,7.96-36.76-.04-52.99-2.4-.68-4.93-1.05-7.55-1.05h0Z"/>
      <path class="cls-2" d="m1204.94,502.73c0,2.4,1.94,4.35,4.35,4.35h11.35c2.4,0,4.35-1.94,4.35-4.35v-11.35c0-2.4-1.94-4.35-4.35-4.35h-11.35c-2.4,0-4.35,1.94-4.35,4.35v11.35Zm1.66-.38v-10.58c0-1.7,1.37-3.07,3.07-3.07h10.58c1.7,0,3.04,1.37,3.04,3.07v10.58c0,1.7-1.35,3.04-3.04,3.04h-10.58c-1.7,0-3.07-1.35-3.07-3.04Z"/>
      <path class="cls-2" d="m0,156.85v-49.26c0-.76.65-1.37,1.45-1.37h1.55v52h-1.55c-.8,0-1.45-.61-1.45-1.37H0Z"/>
      <path class="cls-2" d="m0,156.82c0,.76.67,1.38,1.47,1.38h.09c.16,0,.3-.05.44-.09-.58-.18-1-.67-1-1.28v-49.25c0-.61.42-1.14,1-1.31-.14-.04-.28-.06-.44-.06h-.09C.67,106.19,0,106.81,0,107.57v49.25s0,0,0,0Z"/>
      <path class="cls-2" d="m3.01,158.19h-1.56c-.16,0-.3-.05-.44-.09.58-.18,1-.67,1-1.28v-49.25c0-.61-.42-1.14-1-1.31.14-.04.28-.06.44-.06h1.56v50.63s0,1.37,0,1.37h0Z"/>
    </g>
  </g>
</svg>