<?xml version="1.0" encoding="UTF-8"?>
<svg id="Layer_2" data-name="Layer 2" xmlns="http://www.w3.org/2000/svg" viewBox="0 0 158.29 332.39">
  <defs>
    <style>
      .cls-1 {
        fill: #fff;
        stroke-width: 0px;
      }
    </style>
  </defs>
  <g id="Layer_1-2" data-name="Layer 1">
    <g>
      <path class="cls-1" d="m132,4.06c0,.55-.45,1-1,1h-23.31c-.55,0-1-.45-1-1V1c0-.55.45-1,1-1h23.31c.55,0,1,.45,1,1v3.06Z"/>
      <path class="cls-1" d="m106.8.56h25.09c-.16-.33-.5-.56-.89-.56h-23.31c-.39,0-.72.23-.89.56Z"/>
      <path class="cls-1" d="m5.75,61.02c0,.55-.45,1-1,1H1c-.55,0-1-.45-1-1v-12.71c0-.55.45-1,1-1h3.75c.55,0,1,.45,1,1v12.71Z"/>
      <path class="cls-1" d="m.67,47.38c-.39.14-.67.5-.67.93v12.71c0,.43.28.79.67.93v-14.57Z"/>
      <path class="cls-1" d="m4.95,88.91c0,.55-.45,1-1,1H1.17c-.55,0-1-.45-1-1v-9.41c0-.55.45-1,1-1h2.78c.55,0,1,.45,1,1v9.41Z"/>
      <path class="cls-1" d="m.67,78.66c-.29.18-.5.48-.5.85v9.41c0,.36.21.67.5.85v-11.1Z"/>
      <path class="cls-1" d="m4.95,116.37c0,.55-.45,1-1,1H1.17c-.55,0-1-.45-1-1v-9.41c0-.55.45-1,1-1h2.78c.55,0,1,.45,1,1v9.41Z"/>
      <path class="cls-1" d="m.67,106.11c-.29.18-.5.48-.5.85v9.41c0,.36.21.67.5.85v-11.1Z"/>
      <path class="cls-1" d="m158.29,308.39c0,13.2-10.8,24-24,24H25.8c-13.2,0-24-10.8-24-24V25.56C1.8,12.36,12.6,1.56,25.8,1.56h108.49c13.2,0,24,10.8,24,24v282.83Z"/>
      <path class="cls-1" d="m25.79,330.39c-12.13,0-22-9.87-22-22V25.56C3.79,13.43,13.66,3.56,25.79,3.56h108.49c12.13,0,22,9.87,22,22v282.83c0,12.13-9.87,22-22,22,0,0-108.49,0-108.49,0Z"/>
      <path class="cls-1" d="m25.79,329.89c-11.85,0-21.5-9.64-21.5-21.5V25.56C4.29,13.71,13.94,4.06,25.79,4.06h108.49c11.85,0,21.5,9.65,21.5,21.5v282.83c0,11.86-9.65,21.5-21.5,21.5,0,0-108.49,0-108.49,0Z"/>
      <path class="cls-1" d="m25.79,328.39c-11.03,0-20-8.97-20-20V25.56C5.79,14.54,14.76,5.56,25.79,5.56h108.49c11.03,0,20,8.97,20,20v282.83c0,11.03-8.97,20-20,20,0,0-108.49,0-108.49,0Z"/>
      <path class="cls-1" d="m94.71,30.48c0,1.82-1.47,3.29-3.29,3.29h-22.83c-1.82,0-3.29-1.47-3.29-3.29s1.47-3.29,3.29-3.29h22.83c1.82,0,3.29,1.47,3.29,3.29Z"/>
      <path class="cls-1" d="m92.88,30.27c0,.9-.73,1.62-1.62,1.62h-22.62c-.9,0-1.62-.73-1.62-1.62s.73-1.62,1.62-1.62h22.62c.9,0,1.62.73,1.62,1.62Z"/>
      <path class="cls-1" d="m92.2,30.79l.43-.43.21.21s0-.08.01-.13l-.15-.15.16-.16s0-.09-.01-.13l-.21.22-.43-.43.41-.41-.06-.08-.42.42-.43-.43.4-.4-.09-.05-.38.38-.43-.43.14-.14h-.09s-.04,0-.04,0l-.07.08-.07-.08h-.14l.15.15-.43.43-.43-.43.15-.15h-.14l-.07.08-.07-.08h-.14l.15.15-.43.43-.43-.43.15-.15h-.14l-.07.08-.07-.08h-.14l.15.15-.43.43-.43-.43.15-.15h-.14l-.07.08-.07-.08h-.14l.15.15-.43.43-.43-.43.15-.15h-.14l-.07.08-.07-.08h-.14l.15.15-.43.43-.43-.43.15-.15h-.14l-.07.08-.07-.08h-.14l.15.15-.43.43-.43-.43.15-.15h-.14l-.07.08-.07-.08h-.14l.15.15-.43.43-.43-.43.15-.15h-.14l-.07.08-.07-.08h-.14l.15.15-.43.43-.43-.43.15-.15h-.14l-.07.08-.07-.08h-.14l.15.15-.43.43-.43-.43.15-.15h-.14l-.07.08-.07-.08h-.14l.15.15-.43.43-.43-.43.15-.15h-.14l-.07.08-.07-.08h-.14l.15.15-.43.43-.43-.43.15-.15h-.14l-.07.08-.07-.08h-.14l.15.15-.43.43-.43-.43.15-.15h-.14l-.07.08-.07-.08h-.14l.15.15-.43.43-.43-.43.15-.15h-.14l-.07.08-.07-.08h-.14l.15.15-.43.43-.43-.43.15-.15h-.14l-.07.08-.07-.08h-.14l.15.15-.43.43-.43-.43.15-.15h-.14l-.07.08-.07-.08h-.14l.15.15-.43.43-.43-.43.15-.15h-.14l-.07.08-.07-.08h-.14l.15.15-.43.43-.43-.43.15-.15h-.14l-.07.08-.07-.08h-.14l.15.15-.43.43-.43-.43.15-.15h-.14l-.07.08-.07-.08h-.14l.15.15-.43.43-.43-.43.15-.15h-.14l-.07.08-.07-.08h-.14l.15.15-.43.43-.43-.43.15-.15h-.14l-.07.08-.07-.08h-.14l.15.15-.43.43-.43-.43.15-.15h-.14l-.07.08-.07-.08h-.14l.15.15-.43.43-.43-.43.15-.15h-.14l-.07.08-.07-.08h-.14l.15.15-.43.43-.43-.43.11-.12c-.1.02-.19.05-.29.08l.03.03-.43.43-.12-.12s-.05.05-.07.07l.12.12-.43.43-.02-.02c-.03.09-.06.17-.08.27l.1-.1.43.43-.43.43-.09-.09c.02.08.04.17.08.24h.01s.43.42.43.42l-.11.1.07.07.1-.1.43.43c.07.02.13.05.2.06l-.06-.06.43-.43.43.43-.1.1h.14l.03-.03.03.03h.14l-.1-.1.43-.43.43.43-.1.1h.14l.03-.03.03.03h.14l-.1-.1.43-.43.43.43-.1.1h.14l.03-.03.03.03h.14l-.1-.1.43-.43.43.43-.1.1h.14l.03-.03.03.03h.14l-.1-.1.43-.43.43.43-.1.1h.14l.03-.03.03.03h.14l-.1-.1.43-.43.43.43-.1.1h.14l.03-.03.03.03h.14l-.1-.1.43-.43.43.43-.1.1h.14l.03-.03.03.03h.14l-.1-.1.43-.43.43.43-.1.1h.14l.03-.03.03.03h.14l-.1-.1.43-.43.43.43-.1.1h.14l.03-.03.03.03h.14l-.1-.1.43-.43.43.43-.1.1h.14l.03-.03.03.03h.14l-.1-.1.43-.43.43.43-.1.1h.14l.03-.03.03.03h.14l-.1-.1.43-.43.43.43-.1.1h.14l.03-.03.03.03h.14l-.1-.1.43-.43.43.43-.1.1h.14l.03-.03.03.03h.14l-.1-.1.43-.43.43.43-.1.1h.14l.03-.03.03.03h.14l-.1-.1.43-.43.43.43-.1.1h.14l.03-.03.03.03h.14l-.1-.1.43-.43.43.43-.1.1h.14l.03-.03.03.03h.14l-.1-.1.43-.43.43.43-.1.1h.14l.03-.03.03.03h.14l-.1-.1.43-.43.43.43-.1.1h.14l.03-.03.03.03h.14l-.1-.1.43-.43.43.43-.1.1h.14l.03-.03.03.03h.14l-.1-.1.43-.43.43.43-.1.1h.14l.03-.03.03.03h.14l-.1-.1.43-.43.43.43-.1.1h.14l.03-.03.03.03h.14l-.1-.1.43-.43.43.43-.1.1h.14l.03-.03.03.03h.14l-.1-.1.43-.43.43.43-.1.1h.14l.03-.03.03.03h.08s.04,0,.05,0l-.1-.1.43-.43.35.35.09-.05-.37-.37.43-.43.4.4s.04-.05.06-.08l-.44-.39h0Zm-.14-1l-.43.43-.43-.43.43-.43.43.43Zm-.5.5l-.43.43-.43-.43.43-.43.43.43Zm-.43-1.43l.43.43-.43.43-.43-.43.43-.43Zm-.07.93l-.43.43-.43-.43.43-.43.43.43Zm-.5.5l-.43.43-.43-.43.43-.43.43.43Zm-.43-1.43l.43.43-.43.43-.43-.43.43-.43Zm-.07.93l-.43.43-.43-.43.43-.43.43.43Zm-.5.5l-.43.43-.43-.43.43-.43.43.43Zm-.43-1.43l.43.43-.43.43-.43-.43.43-.43Zm-.07.93l-.43.43-.43-.43.43-.43.43.43Zm-.5.5l-.43.43-.43-.43.43-.43.43.43Zm-.43-1.43l.43.43-.43.43-.43-.43.43-.43Zm-.07.93l-.43.43-.43-.43.43-.43.43.43Zm-.5.5l-.43.43-.43-.43.43-.43.43.43Zm-.43-1.43l.43.43-.43.43-.43-.43.43-.43Zm-.07.93l-.43.43-.43-.43.43-.43.43.43Zm-.5.5l-.43.43-.43-.43.43-.43.43.43Zm-.43-1.43l.43.43-.43.43-.43-.43.43-.43Zm-.07.93l-.43.43-.43-.43.43-.43.43.43Zm-.5.5l-.43.43-.43-.43.43-.43.43.43Zm-.43-1.43l.43.43-.43.43-.43-.43.43-.43Zm-.07.93l-.43.43-.43-.43.43-.43.43.43Zm-.5.5l-.43.43-.43-.43.43-.43.43.43Zm-.43-1.43l.43.43-.43.43-.43-.43.43-.43Zm-.07.93l-.43.43-.43-.43.43-.43.43.43Zm-.5.5l-.43.43-.43-.43.43-.43.43.43Zm-.43-1.43l.43.43-.43.43-.43-.43.43-.43Zm-.07.93l-.43.43-.43-.43.43-.43.43.43Zm-.5.5l-.43.43-.43-.43.43-.43.43.43Zm-.43-1.43l.43.43-.43.43-.43-.43.43-.43Zm-.07.93l-.43.43-.43-.43.43-.43.43.43Zm-.5.5l-.43.43-.43-.43.43-.43.43.43Zm-.43-1.43l.43.43-.43.43-.43-.43.43-.43Zm-.07.93l-.43.43-.43-.43.43-.43.43.43Zm-.5.5l-.43.43-.43-.43.43-.43.43.43Zm-.43-1.43l.43.43-.43.43-.43-.43.43-.43Zm-.07.93l-.43.43-.43-.43.43-.43.43.43Zm-.5.5l-.43.43-.43-.43.43-.43.43.43Zm-.43-1.43l.43.43-.43.43-.43-.43.43-.43Zm-.07.93l-.43.43-.43-.43.43-.43.43.43Zm-.5.5l-.43.43-.43-.43.43-.43.43.43Zm-.43-1.43l.43.43-.43.43-.43-.43.43-.43Zm-.07.93l-.43.43-.43-.43.43-.43.43.43Zm-.5.5l-.43.43-.43-.43.43-.43.43.43Zm-.43-1.43l.43.43-.43.43-.43-.43.43-.43Zm-.07.93l-.43.43-.43-.43.43-.43.43.43Zm-.5.5l-.43.43-.43-.43.43-.43.43.43Zm-.43-1.43l.43.43-.43.43-.43-.43.43-.43Zm-.07.93l-.43.43-.43-.43.43-.43.43.43Zm-.5.5l-.43.43-.43-.43.43-.43.43.43Zm-.43-1.43l.43.43-.43.43-.43-.43.43-.43Zm-.07.93l-.43.43-.43-.43.43-.43.43.43Zm-.5.5l-.43.43-.43-.43.43-.43.43.43Zm-.43-1.43l.43.43-.43.43-.43-.43.43-.43Zm-.07.93l-.43.43-.43-.43.43-.43.43.43Zm-.5.5l-.43.43-.43-.43.43-.43.43.43Zm-.43-1.43l.43.43-.43.43-.43-.43.43-.43Zm-.07.93l-.43.43-.43-.43.43-.43.43.43Zm-.5.5l-.43.43-.43-.43.43-.43.43.43Zm-.43-1.43l.43.43-.43.43-.43-.43.43-.43Zm-.07.93l-.43.43-.43-.43.43-.43.43.43Zm-.5.5l-.43.43-.43-.43.43-.43.43.43Zm-.43-1.43l.43.43-.43.43-.43-.43.43-.43Zm-.07.93l-.43.43-.43-.43.43-.43.43.43Zm-.5.5l-.43.43-.43-.43.43-.43.43.43Zm-.43-1.43l.43.43-.43.43-.43-.43.43-.43Zm-.07.93l-.43.43-.43-.43.43-.43.43.43Zm-.5.5l-.43.43-.43-.43.43-.43.43.43Zm-.43-1.43l.43.43-.43.43-.43-.43.43-.43Zm-.07.93l-.43.43-.43-.43.43-.43.43.43Zm-.5.5l-.43.43-.43-.43.43-.43.43.43Zm-.43-1.43l.43.43-.43.43-.43-.43.43-.43Zm-.93.93l.43-.43.43.43-.43.43-.43-.43Zm0,1l.43-.43.43.43-.43.43-.43-.43Zm.93.93l-.43-.43.43-.43.43.43-.43.43Zm.07-.93l.43-.43.43.43-.43.43-.43-.43Zm.93.93l-.43-.43.43-.43.43.43-.43.43Zm.07-.93l.43-.43.43.43-.43.43-.43-.43Zm.93.93l-.43-.43.43-.43.43.43-.43.43Zm.07-.93l.43-.43.43.43-.43.43-.43-.43Zm.93.93l-.43-.43.43-.43.43.43-.43.43Zm.07-.93l.43-.43.43.43-.43.43-.43-.43Zm.93.93l-.43-.43.43-.43.43.43-.43.43Zm.07-.93l.43-.43.43.43-.43.43-.43-.43Zm.93.93l-.43-.43.43-.43.43.43-.43.43Zm.07-.93l.43-.43.43.43-.43.43-.43-.43Zm.93.93l-.43-.43.43-.43.43.43-.43.43Zm.07-.93l.43-.43.43.43-.43.43-.43-.43Zm.93.93l-.43-.43.43-.43.43.43-.43.43Zm.07-.93l.43-.43.43.43-.43.43-.43-.43Zm.93.93l-.43-.43.43-.43.43.43-.43.43Zm.07-.93l.43-.43.43.43-.43.43-.43-.43Zm.93.93l-.43-.43.43-.43.43.43-.43.43Zm.07-.93l.43-.43.43.43-.43.43-.43-.43Zm.93.93l-.43-.43.43-.43.43.43-.43.43Zm.07-.93l.43-.43.43.43-.43.43-.43-.43Zm.93.93l-.43-.43.43-.43.43.43-.43.43Zm.07-.93l.43-.43.43.43-.43.43-.43-.43Zm.93.93l-.43-.43.43-.43.43.43-.43.43Zm.07-.93l.43-.43.43.43-.43.43-.43-.43Zm.93.93l-.43-.43.43-.43.43.43-.43.43Zm.07-.93l.43-.43.43.43-.43.43-.43-.43Zm.93.93l-.43-.43.43-.43.43.43-.43.43Zm.07-.93l.43-.43.43.43-.43.43-.43-.43Zm.93.93l-.43-.43.43-.43.43.43-.43.43Zm.07-.93l.43-.43.43.43-.43.43-.43-.43Zm.93.93l-.43-.43.43-.43.43.43-.43.43Zm.07-.93l.43-.43.43.43-.43.43-.43-.43Zm.93.93l-.43-.43.43-.43.43.43-.43.43Zm.07-.93l.43-.43.43.43-.43.43-.43-.43Zm.93.93l-.43-.43.43-.43.43.43-.43.43Zm.07-.93l.43-.43.43.43-.43.43-.43-.43Zm.93.93l-.43-.43.43-.43.43.43-.43.43Zm.07-.93l.43-.43.43.43-.43.43-.43-.43Zm.93.93l-.43-.43.43-.43.43.43-.43.43Zm.07-.93l.43-.43.43.43-.43.43-.43-.43Zm.93.93l-.43-.43.43-.43.43.43-.43.43Zm.07-.93l.43-.43.43.43-.43.43-.43-.43Zm.93.93l-.43-.43.43-.43.43.43-.43.43Zm.07-.93l.43-.43.43.43-.43.43-.43-.43Zm.93.93l-.43-.43.43-.43.43.43-.43.43Zm.5-.5l-.43-.43.43-.43.43.43-.43.43Zm.07-.93l.43-.43.43.43-.43.43-.43-.43Z"/>
      <path class="cls-1" d="m92.36,29.09l.06.06-.06-.06Z"/>
      <path class="cls-1" d="m82.96,17.94c0-1.63-1.32-2.96-2.96-2.96s-2.96,1.32-2.96,2.96,1.32,2.96,2.96,2.96,2.96-1.32,2.96-2.96"/>
      <path class="cls-1" d="m81.3,17.94c0-.72-.58-1.3-1.3-1.3-.72,0-1.3.58-1.3,1.3h0c0,.72.58,1.31,1.3,1.31s1.3-.58,1.3-1.3"/>
      <path class="cls-1" d="m79.68,18.41c0-.17-.14-.31-.31-.31s-.31.14-.31.31h0c0,.17.14.31.31.31s.31-.14.31-.31"/>
      <path class="cls-1" d="m81.06,17.48c0-.17-.14-.31-.31-.31s-.31.14-.31.31.14.31.31.31.31-.14.31-.31"/>
      <path class="cls-1" d="m80.04,17.38c0-.25-.2-.46-.46-.46s-.46.2-.46.46.2.46.46.46.46-.2.46-.46"/>
      <path class="cls-1" d="m148.08,285.39c0,1.1-.9,2-2,2H13.58c-1.1,0-2-.9-2-2V49.06c0-1.1.9-2,2-2h132.5c1.1,0,2,.9,2,2v236.33Z"/>
      <path class="cls-1" d="m12.56,35.4h133v236.71H12.56V35.4Z"/>
      <path class="cls-1" d="m93.84,308.18c0-8.12-6.58-14.71-14.71-14.71-8.12,0-14.71,6.58-14.71,14.71h0c0,8.13,6.58,14.71,14.71,14.71,8.12,0,14.71-6.58,14.71-14.71h0"/>
      <path class="cls-1" d="m79.12,293.79c8.07,0,14.62,6.5,14.7,14.55,0-.05,0-.1,0-.16,0-8.12-6.58-14.71-14.71-14.71s-14.71,6.58-14.71,14.71c0,.05,0,.1,0,.16.08-8.05,6.63-14.55,14.7-14.55Z"/>
      <path class="cls-1" d="m81.75,313.65h-5.28c-1.65,0-3-1.35-3-3v-5.21c0-1.65,1.35-3,3-3h5.28c1.65,0,3,1.35,3,3v5.21c0,1.65-1.35,3-3,3Zm-5.28-10.21c-1.1,0-2,.9-2,2v5.21c0,1.1.9,2,2,2h5.28c1.1,0,2-.9,2-2v-5.21c0-1.1-.9-2-2-2h-5.28Z"/>
      <path class="cls-1" d="m79.12,309.44c-5.42,0-10.46-.36-14.69-.97.15,7.99,6.67,14.43,14.69,14.43s14.54-6.44,14.69-14.43c-4.24.61-9.28.97-14.69.97Z"/>
    </g>
  </g>
</svg>