<?xml version="1.0" encoding="UTF-8"?>
<svg id="Layer_2" data-name="Layer 2" xmlns="http://www.w3.org/2000/svg" viewBox="0 0 235.69 150.43">
  <defs>
    <style>
      .cls-1 {
        fill: #fff;
        stroke-width: 0px;
      }
    </style>
  </defs>
  <g id="Layer_1-2" data-name="Layer 1">
    <g>
      <path class="cls-1" color-rendering="auto" d="m23.51,0c-6.74,0-12.27,5.54-12.27,12.28v110.45c0,6.74,5.53,12.27,12.27,12.27h188.67c6.74,0,12.27-5.53,12.27-12.27V12.29C224.45,5.54,218.92,0,212.18,0H23.51Zm0,7.03h188.67c2.97,0,5.24,2.29,5.24,5.26v110.45c0,2.97-2.27,5.24-5.24,5.24H23.51c-2.97,0-5.24-2.27-5.24-5.24V12.29c0-2.97,2.27-5.26,5.24-5.26h0Z" image-rendering="auto" shape-rendering="auto"/>
      <path class="cls-1" d="m0,137.03C0,144.45,5.12,150.43,11.48,150.43h212.73c6.36,0,11.48-5.97,11.48-13.39H0h0Z"/>
      <path class="cls-1" d="m100.3,139.85h35.1c.54,0,.98.44.98.98s-.44.98-.98.98h-35.1c-.54,0-.98-.44-.98-.98s.44-.98.98-.98Z"/>
    </g>
  </g>
</svg>